<?xml version="1.0" encoding="UTF-8" standalone="no"?>
<!-- Generator: Adobe Illustrator 16.0.0, SVG Export Plug-In . SVG Version: 6.00 Build 0)  -->

<svg
   xmlns:dc="http://purl.org/dc/elements/1.1/"
   xmlns:cc="http://creativecommons.org/ns#"
   xmlns:rdf="http://www.w3.org/1999/02/22-rdf-syntax-ns#"
   xmlns:svg="http://www.w3.org/2000/svg"
   xmlns="http://www.w3.org/2000/svg"
   xmlns:xlink="http://www.w3.org/1999/xlink"
   xmlns:sodipodi="http://sodipodi.sourceforge.net/DTD/sodipodi-0.dtd"
   xmlns:inkscape="http://www.inkscape.org/namespaces/inkscape"
   version="1.1"
   id="Layer_1"
   x="0px"
   y="0px"
   width="264.65045"
   height="67.459923"
   viewBox="0 0 264.65045 67.459923"
   enable-background="new 0 0 359 68"
   xml:space="preserve"
   inkscape:version="0.91 r13725"
   sodipodi:docname="Stonybrook_astro_logo.svg"
   inkscape:export-filename="/Users/melissahoffman1/Desktop/sbu-astro/orbitlogo_nobkgd.png"
   inkscape:export-xdpi="300"
   inkscape:export-ydpi="300"><metadata
     id="metadata4326"><rdf:RDF><cc:Work
         rdf:about=""><dc:format>image/svg+xml</dc:format><dc:type
           rdf:resource="http://purl.org/dc/dcmitype/StillImage" /><dc:title></dc:title></cc:Work></rdf:RDF></metadata><defs
     id="defs4324"><inkscape:path-effect
       effect="spiro"
       id="path-effect4788"
       is_visible="true" /><inkscape:path-effect
       effect="spiro"
       id="path-effect4766"
       is_visible="true" /><inkscape:path-effect
       effect="spiro"
       id="path-effect4753"
       is_visible="true" /><inkscape:path-effect
       effect="spiro"
       id="path-effect4710"
       is_visible="true" /><clipPath
       id="SVGID_4_-8"><rect
         height="58.855"
         width="347.73001"
         y="5.3559999"
         x="3.77"
         id="use4318-3" /></clipPath><clipPath
       id="SVGID_4_-8-3"><rect
         height="58.855"
         width="347.73001"
         y="5.3559999"
         x="3.77"
         id="use4318-3-4" /></clipPath><clipPath
       id="SVGID_4_-6"><use
         height="100%"
         width="100%"
         y="0"
         x="0"
         style="overflow:visible"
         xlink:href="#SVGID_3_-36"
         overflow="visible"
         id="use4859" /></clipPath><clipPath
       id="SVGID_2_-0"><use
         height="100%"
         width="100%"
         y="0"
         x="0"
         style="overflow:visible"
         xlink:href="#SVGID_1_-6"
         overflow="visible"
         id="use4839" /></clipPath></defs><sodipodi:namedview
     pagecolor="#ffffff"
     bordercolor="#666666"
     borderopacity="1"
     objecttolerance="10"
     gridtolerance="10"
     guidetolerance="10"
     inkscape:pageopacity="0"
     inkscape:pageshadow="2"
     inkscape:window-width="1172"
     inkscape:window-height="618"
     id="namedview4322"
     showgrid="false"
     fit-margin-top="0"
     fit-margin-left="0"
     fit-margin-right="0"
     fit-margin-bottom="0"
     inkscape:zoom="1.0598886"
     inkscape:cx="215.04877"
     inkscape:cy="15.708095"
     inkscape:window-x="119"
     inkscape:window-y="31"
     inkscape:window-maximized="0"
     inkscape:current-layer="layer2" /><g
     transform="translate(-53.86018,-20.687059)"
     style="font-style:normal;font-weight:normal;font-size:40px;line-height:125%;font-family:sans-serif;letter-spacing:0px;word-spacing:0px;fill:#000000;fill-opacity:1;stroke:none;stroke-width:1px;stroke-linecap:butt;stroke-linejoin:miter;stroke-opacity:1"
     id="flowRoot4328" /><g
     inkscape:groupmode="layer"
     id="layer1"
     inkscape:label="ASTR"
     style="display:inline"
     transform="translate(-60.855453,-0.06833114)"><path
       transform="translate(6.9952732,-20.618728)"
       d="m 89.027344,34.104473 -9.365235,25.395507 18.764649,0 -9.399414,-25.395507 z m -3.896485,-6.801758 7.827149,0 19.448242,51.030273 -7.17773,0 -4.64844,-13.09082 -23.002932,0 -4.648437,13.09082 -7.280274,0 19.482422,-51.030273 z"
       style="font-style:normal;font-weight:normal;font-size:70px;line-height:125%;font-family:sans-serif;letter-spacing:0px;word-spacing:0px;fill:#000000;fill-opacity:1;stroke:none;stroke-width:1px;stroke-linecap:butt;stroke-linejoin:miter;stroke-opacity:1"
       id="path4337"
       inkscape:connector-curvature="0" /><path
       transform="translate(6.9952732,-20.618728)"
       d="m 150.41406,28.977519 0,6.733399 q -3.93066,-1.879883 -7.41699,-2.802735 -3.48633,-0.922851 -6.7334,-0.922851 -5.63965,0 -8.71582,2.1875 -3.04199,2.1875 -3.04199,6.220703 0,3.383789 2.0166,5.126953 2.05078,1.708985 7.72461,2.768555 l 4.16992,0.854492 q 7.72461,1.469727 11.38184,5.195313 3.6914,3.691406 3.6914,9.912109 0,7.416992 -4.99023,11.245117 -4.95605,3.828125 -14.56055,3.828125 -3.62304,0 -7.72461,-0.820312 -4.06738,-0.820313 -8.44238,-2.426758 l 0,-7.109375 q 4.2041,2.358398 8.23731,3.554687 4.0332,1.196289 7.92968,1.196289 5.91309,0 9.12598,-2.324218 3.21289,-2.324219 3.21289,-6.63086 0,-3.759765 -2.32422,-5.878906 -2.29004,-2.119141 -7.55371,-3.178711 l -4.2041,-0.820312 q -7.72461,-1.538086 -11.17676,-4.819336 -3.45215,-3.28125 -3.45215,-9.125977 0,-6.767578 4.75098,-10.664062 4.78516,-3.896485 13.15918,-3.896485 3.58887,0 7.31445,0.649414 3.72559,0.649414 7.62207,1.948242 z"
       style="font-style:normal;font-weight:normal;font-size:70px;line-height:125%;font-family:sans-serif;letter-spacing:0px;word-spacing:0px;fill:#000000;fill-opacity:1;stroke:none;stroke-width:1px;stroke-linecap:butt;stroke-linejoin:miter;stroke-opacity:1"
       id="path4339"
       inkscape:connector-curvature="0" /><path
       transform="translate(6.9952732,-20.618728)"
       d="m 157.31836,27.302715 43.16894,0 0,5.810547 -18.11523,0 0,45.219726 -6.93848,0 0,-45.219726 -18.11523,0 0,-5.810547 z"
       style="font-style:normal;font-weight:normal;font-size:70px;line-height:125%;font-family:sans-serif;letter-spacing:0px;word-spacing:0px;fill:#000000;fill-opacity:1;stroke:none;stroke-width:1px;stroke-linecap:butt;stroke-linejoin:miter;stroke-opacity:1"
       id="path4341"
       inkscape:connector-curvature="0" /><path
       transform="translate(6.9952732,-20.618728)"
       d="m 231.52246,54.407207 q 2.22168,0.751953 4.30664,3.212891 2.11914,2.460937 4.23828,6.767578 l 7.00684,13.945312 -7.41699,0 -6.52832,-13.09082 q -2.5293,-5.126953 -4.92188,-6.801758 -2.3584,-1.674805 -6.45996,-1.674805 l -7.51953,0 0,21.567383 -6.9043,0 0,-51.030273 15.58594,0 q 8.75,0 13.05664,3.657226 4.30664,3.657227 4.30664,11.040039 0,4.819336 -2.25586,7.998047 -2.22168,3.178711 -6.49414,4.40918 z m -17.29492,-21.430664 0,18.115234 8.68164,0 q 4.99023,0 7.51953,-2.290039 2.56348,-2.324219 2.56348,-6.801758 0,-4.477539 -2.56348,-6.733398 -2.5293,-2.290039 -7.51953,-2.290039 l -8.68164,0 z"
       style="font-style:normal;font-weight:normal;font-size:70px;line-height:125%;font-family:sans-serif;letter-spacing:0px;word-spacing:0px;fill:#000000;fill-opacity:1;stroke:none;stroke-width:1px;stroke-linecap:butt;stroke-linejoin:miter;stroke-opacity:1"
       id="path4343"
       inkscape:connector-curvature="0" /></g><g
     inkscape:groupmode="layer"
     id="layer2"
     inkscape:label="HEART"><g
       style=""
       transform="matrix(1.1360262,0,0,1.1360262,195.62986,-9.2744577)"
       id="g4833"><defs
         id="defs4835"><rect
           id="SVGID_1_-6"
           x="3.77"
           y="5.3559999"
           width="347.73001"
           height="58.855" /></defs><clipPath
         id="clipPath5424"><use
           height="100%"
           width="100%"
           y="0"
           x="0"
           style="overflow:visible"
           xlink:href="#SVGID_1_-6"
           overflow="visible"
           id="use5426" /></clipPath><path
         style="fill:#ffffff"
         inkscape:connector-curvature="0"
         clip-path="url(#SVGID_2_-0)"
         d="M 53.318,11.493 C 39.505,3.062 17.741,3.567 3.772,11.493 l 0,22.109 c -0.168,11.905 7.499,22.995 17.87,28.119 2.284,1.123 4.399,1.902 6.904,2.49 2.505,-0.588 4.62,-1.367 6.904,-2.49 C 45.817,56.6 53.486,45.508 53.316,33.603 l 0.002,-22.11"
         id="path4841" /></g><path
       style="fill:#990000"
       d="M 237.48242 7.5449219 C 236.83625 7.7100344 236.22104 7.9061516 235.63867 8.1367188 L 242.12109 46.285156 C 243.21479 45.313933 244.25783 44.373925 245.21094 43.480469 L 237.48242 7.5449219 z "
       id="path4843" /><path
       style="fill:#990000"
       d="M 244.375 7.28125 L 254.16602 33.232422 C 254.82663 32.155383 255.35859 31.101499 255.78516 30.048828 L 246.42773 7.7792969 C 245.76337 7.5667917 245.07609 7.4041511 244.375 7.28125 z "
       id="path4845" /><path
       style="fill:#990000"
       d="M 233.09375 9.4179688 C 232.33583 9.8908029 231.65922 10.416202 231.01758 10.955078 L 233.7207 53.425781 C 235.01216 52.356188 236.36884 51.240125 237.53125 50.255859 L 233.09375 9.4179688 z "
       id="path4847" /><path
       style="fill:#990000"
       d="M 241.64062 7.0292969 C 241.05111 7.0292969 240.49085 7.0668366 239.94336 7.1191406 L 248.92969 39.792969 C 249.81456 38.862293 250.64553 37.954401 251.36719 37.087891 L 241.78906 7.0371094 C 241.739 7.0366435 241.69081 7.0292969 241.64062 7.0292969 z "
       id="path4849" /><path
       style="fill:#990000"
       d="M 249.58594 9.2070312 L 256.19727 23.0625 L 256.19922 17.152344 C 254.96361 13.795802 252.6166 11.002974 249.58594 9.2070312 z "
       id="path4851" /><g
       style=""
       transform="matrix(1.1360262,0,0,1.1360262,195.62986,-9.2744577)"
       id="g4853"><defs
         id="defs4855"><rect
           id="SVGID_3_-36"
           x="3.77"
           y="5.3559999"
           width="347.73001"
           height="58.855" /></defs><clipPath
         id="clipPath5437"><use
           height="100%"
           width="100%"
           y="0"
           x="0"
           style="overflow:visible"
           xlink:href="#SVGID_3_-36"
           overflow="visible"
           id="use5439" /></clipPath><path
         style="fill:#990000"
         clip-path="url(#SVGID_4_-6)"
         d="M 214.02344 7.0292969 C 207.72525 7.0292969 202.36105 10.715073 199.91406 16.056641 L 199.91406 28.894531 C 199.9081 29.312021 199.91104 29.728982 199.92188 30.144531 C 202.76596 37.05594 210.34515 44.038744 226.79688 57.429688 L 227.83203 58.292969 L 228.05859 58.103516 L 228.05859 13.857422 C 227.98542 13.938954 227.90355 14.025011 227.83203 14.105469 C 225.0704 10.998635 221.10012 7.0292969 214.02344 7.0292969 z M 214.77539 18.957031 L 216.34961 23.759766 L 221.39258 23.759766 L 217.30859 26.732422 L 218.88086 31.5625 L 214.77539 28.576172 L 210.67578 31.5625 L 212.24609 26.732422 L 208.16016 23.759766 L 213.20898 23.759766 L 214.77539 18.957031 z "
         transform="matrix(0.88026139,0,0,0.88026139,-172.20541,8.163947)"
         id="path4861" /></g><path
       style=""
       inkscape:connector-curvature="0"
       d="m 227.8324,58.292451 -1.03561,-0.863009 C 204.53116,39.306247 198.4901,32.919978 198.4901,22.563867 c 0,-8.630093 6.90407,-15.5341673 15.53415,-15.5341673 7.07668,0 11.04652,3.9698423 13.80815,7.0766763 2.76163,-3.106834 6.73147,-7.0766763 13.80815,-7.0766763 8.63009,0 15.53416,6.9040743 15.53416,15.5341673 0,10.356111 -6.04106,16.74238 -28.3067,34.865575 l -1.03561,0.863009 z M 214.02425,10.481737 c -6.73146,0 -12.08211,5.350657 -12.08211,12.08213 0,8.802694 5.52326,14.671158 25.89026,31.240936 20.36702,-16.569778 25.89028,-22.438242 25.89028,-31.240936 0,-6.731473 -5.35066,-12.08213 -12.08213,-12.08213 -6.04107,0 -9.3205,3.624639 -11.90953,6.55887 l -1.89862,2.243824 -1.89862,-2.243824 c -2.58903,-2.934231 -5.86847,-6.55887 -11.90953,-6.55887 z"
       id="path4229" /></g></svg>