<?xml version="1.0" encoding="UTF-8" standalone="no"?>
<!-- Generator: Adobe Illustrator 16.0.0, SVG Export Plug-In . SVG Version: 6.00 Build 0)  -->

<svg
   xmlns:dc="http://purl.org/dc/elements/1.1/"
   xmlns:cc="http://creativecommons.org/ns#"
   xmlns:rdf="http://www.w3.org/1999/02/22-rdf-syntax-ns#"
   xmlns:svg="http://www.w3.org/2000/svg"
   xmlns="http://www.w3.org/2000/svg"
   xmlns:xlink="http://www.w3.org/1999/xlink"
   xmlns:sodipodi="http://sodipodi.sourceforge.net/DTD/sodipodi-0.dtd"
   xmlns:inkscape="http://www.inkscape.org/namespaces/inkscape"
   version="1.1"
   id="Layer_1"
   x="0px"
   y="0px"
   width="264.65045"
   height="67.459923"
   viewBox="0 0 264.65045 67.459923"
   enable-background="new 0 0 359 68"
   xml:space="preserve"
   inkscape:version="0.91 r13725"
   sodipodi:docname="orbit.svg"
   inkscape:export-filename="/Users/melissahoffman1/Desktop/sbu-astro/orbitlogo_nobkgd.png"
   inkscape:export-xdpi="300"
   inkscape:export-ydpi="300"><metadata
     id="metadata4326"><rdf:RDF><cc:Work
         rdf:about=""><dc:format>image/svg+xml</dc:format><dc:type
           rdf:resource="http://purl.org/dc/dcmitype/StillImage" /><dc:title /></cc:Work></rdf:RDF></metadata><defs
     id="defs4324"><inkscape:path-effect
       effect="spiro"
       id="path-effect4788"
       is_visible="true" /><inkscape:path-effect
       effect="spiro"
       id="path-effect4766"
       is_visible="true" /><inkscape:path-effect
       effect="spiro"
       id="path-effect4753"
       is_visible="true" /><inkscape:path-effect
       effect="spiro"
       id="path-effect4710"
       is_visible="true" /><clipPath
       id="SVGID_4_-8"><rect
         height="58.855"
         width="347.73001"
         y="5.3559999"
         x="3.77"
         id="use4318-3" /></clipPath><clipPath
       id="SVGID_4_-8-3"><use
         xlink:href="#SVGID_3_-3-1"
         overflow="visible"
         id="use4318-3-4"
         style="overflow:visible"
         x="0"
         y="0"
         width="100%"
         height="100%" /></clipPath></defs><sodipodi:namedview
     pagecolor="#ffffff"
     bordercolor="#666666"
     borderopacity="1"
     objecttolerance="10"
     gridtolerance="10"
     guidetolerance="10"
     inkscape:pageopacity="0"
     inkscape:pageshadow="2"
     inkscape:window-width="1172"
     inkscape:window-height="618"
     id="namedview4322"
     showgrid="false"
     fit-margin-top="0"
     fit-margin-left="0"
     fit-margin-right="0"
     fit-margin-bottom="0"
     inkscape:zoom="1.4989088"
     inkscape:cx="102.92488"
     inkscape:cy="15.708095"
     inkscape:window-x="119"
     inkscape:window-y="31"
     inkscape:window-maximized="0"
     inkscape:current-layer="layer6" /><g
     transform="translate(-53.86018,-20.687059)"
     style="font-style:normal;font-weight:normal;font-size:40px;line-height:125%;font-family:sans-serif;letter-spacing:0px;word-spacing:0px;fill:#000000;fill-opacity:1;stroke:none;stroke-width:1px;stroke-linecap:butt;stroke-linejoin:miter;stroke-opacity:1"
     id="flowRoot4328" /><g
     inkscape:groupmode="layer"
     id="layer1"
     inkscape:label="ASTR"
     style="display:inline"
     transform="translate(-60.855453,-0.06833114)"><path
       transform="translate(6.9952732,-20.618728)"
       d="m 89.027344,34.104473 -9.365235,25.395507 18.764649,0 -9.399414,-25.395507 z m -3.896485,-6.801758 7.827149,0 19.448242,51.030273 -7.17773,0 -4.64844,-13.09082 -23.002932,0 -4.648437,13.09082 -7.280274,0 19.482422,-51.030273 z"
       style="font-style:normal;font-weight:normal;font-size:70px;line-height:125%;font-family:sans-serif;letter-spacing:0px;word-spacing:0px;fill:#000000;fill-opacity:1;stroke:none;stroke-width:1px;stroke-linecap:butt;stroke-linejoin:miter;stroke-opacity:1"
       id="path4337"
       inkscape:connector-curvature="0" /><path
       transform="translate(6.9952732,-20.618728)"
       d="m 150.41406,28.977519 0,6.733399 q -3.93066,-1.879883 -7.41699,-2.802735 -3.48633,-0.922851 -6.7334,-0.922851 -5.63965,0 -8.71582,2.1875 -3.04199,2.1875 -3.04199,6.220703 0,3.383789 2.0166,5.126953 2.05078,1.708985 7.72461,2.768555 l 4.16992,0.854492 q 7.72461,1.469727 11.38184,5.195313 3.6914,3.691406 3.6914,9.912109 0,7.416992 -4.99023,11.245117 -4.95605,3.828125 -14.56055,3.828125 -3.62304,0 -7.72461,-0.820312 -4.06738,-0.820313 -8.44238,-2.426758 l 0,-7.109375 q 4.2041,2.358398 8.23731,3.554687 4.0332,1.196289 7.92968,1.196289 5.91309,0 9.12598,-2.324218 3.21289,-2.324219 3.21289,-6.63086 0,-3.759765 -2.32422,-5.878906 -2.29004,-2.119141 -7.55371,-3.178711 l -4.2041,-0.820312 q -7.72461,-1.538086 -11.17676,-4.819336 -3.45215,-3.28125 -3.45215,-9.125977 0,-6.767578 4.75098,-10.664062 4.78516,-3.896485 13.15918,-3.896485 3.58887,0 7.31445,0.649414 3.72559,0.649414 7.62207,1.948242 z"
       style="font-style:normal;font-weight:normal;font-size:70px;line-height:125%;font-family:sans-serif;letter-spacing:0px;word-spacing:0px;fill:#000000;fill-opacity:1;stroke:none;stroke-width:1px;stroke-linecap:butt;stroke-linejoin:miter;stroke-opacity:1"
       id="path4339"
       inkscape:connector-curvature="0" /><path
       transform="translate(6.9952732,-20.618728)"
       d="m 157.31836,27.302715 43.16894,0 0,5.810547 -18.11523,0 0,45.219726 -6.93848,0 0,-45.219726 -18.11523,0 0,-5.810547 z"
       style="font-style:normal;font-weight:normal;font-size:70px;line-height:125%;font-family:sans-serif;letter-spacing:0px;word-spacing:0px;fill:#000000;fill-opacity:1;stroke:none;stroke-width:1px;stroke-linecap:butt;stroke-linejoin:miter;stroke-opacity:1"
       id="path4341"
       inkscape:connector-curvature="0" /><path
       transform="translate(6.9952732,-20.618728)"
       d="m 231.52246,54.407207 q 2.22168,0.751953 4.30664,3.212891 2.11914,2.460937 4.23828,6.767578 l 7.00684,13.945312 -7.41699,0 -6.52832,-13.09082 q -2.5293,-5.126953 -4.92188,-6.801758 -2.3584,-1.674805 -6.45996,-1.674805 l -7.51953,0 0,21.567383 -6.9043,0 0,-51.030273 15.58594,0 q 8.75,0 13.05664,3.657226 4.30664,3.657227 4.30664,11.040039 0,4.819336 -2.25586,7.998047 -2.22168,3.178711 -6.49414,4.40918 z m -17.29492,-21.430664 0,18.115234 8.68164,0 q 4.99023,0 7.51953,-2.290039 2.56348,-2.324219 2.56348,-6.801758 0,-4.477539 -2.56348,-6.733398 -2.5293,-2.290039 -7.51953,-2.290039 l -8.68164,0 z"
       style="font-style:normal;font-weight:normal;font-size:70px;line-height:125%;font-family:sans-serif;letter-spacing:0px;word-spacing:0px;fill:#000000;fill-opacity:1;stroke:none;stroke-width:1px;stroke-linecap:butt;stroke-linejoin:miter;stroke-opacity:1"
       id="path4343"
       inkscape:connector-curvature="0" /></g><g
     inkscape:groupmode="layer"
     id="layer4"
     inkscape:label="O w. orbit"
     style="display:inline"
     transform="translate(-60.855453,-0.06833114)"><path
       inkscape:connector-curvature="0"
       d="m 286.47916,4.769928 c 7.15495,0 12.87435,2.4039713 17.1582,7.211914 4.28385,4.785156 6.42578,11.210937 6.42578,19.277343 0,8.043621 -2.14193,14.469402 -6.42578,19.277345 -4.28385,4.785153 -10.00325,7.17773 -17.1582,7.17773 -7.17773,0 -12.91992,-2.392577 -17.22656,-7.17773 -4.28386,-4.785157 -6.42579,-11.210938 -6.42579,-19.277345 0,-8.066406 2.14193,-14.492187 6.42579,-19.277343 4.30664,-4.8079427 10.04883,-7.211914 17.22656,-7.211914 z"
       style="font-style:normal;font-weight:normal;font-size:70px;line-height:125%;font-family:sans-serif;letter-spacing:0px;word-spacing:0px;display:inline;fill:#000000;fill-opacity:1;stroke:none;stroke-width:1px;stroke-linecap:butt;stroke-linejoin:miter;stroke-opacity:1"
       id="path4345-9-4"
       sodipodi:nodetypes="scscscscs" /><g
       id="g4420-4-4"
       transform="matrix(0.94815307,0,0,0.93666898,27.224186,-0.5072419)"><g
         transform="translate(252.38502,1.4152431)"
         id="g4292-5-0"><defs
           id="defs4294-6-5"><rect
             height="58.855"
             width="347.73001"
             y="5.3559999"
             x="3.77"
             id="SVGID_1_-3-6" /></defs><clipPath
           id="SVGID_2_-1-7"><use
             height="100%"
             width="100%"
             y="0"
             x="0"
             style="overflow:visible"
             id="use4298-9-2"
             overflow="visible"
             xlink:href="#SVGID_1_-3-6" /></clipPath></g><g
         id="g4446-4-9"
         transform="matrix(0.92538284,0,0,0.92538284,12.083802,3.8001022)"><path
           d="m 282.36898,6.094711 c 7.15495,0 12.87435,2.403971 17.1582,7.211914 4.28385,4.785157 6.42578,11.210938 6.42578,19.277344 0,8.04362 -2.14193,14.469401 -6.42578,19.277344 -4.28385,4.785156 -10.00325,7.177734 -17.1582,7.177734 -7.17773,0 -12.91992,-2.392578 -17.22656,-7.177734 -4.28386,-4.785157 -6.42579,-11.210938 -6.42579,-19.277344 0,-8.066406 2.14193,-14.492187 6.42579,-19.277344 4.30664,-4.807943 10.04883,-7.211914 17.22656,-7.211914 z"
           style="font-style:normal;font-weight:normal;font-size:70px;line-height:125%;font-family:sans-serif;letter-spacing:0px;word-spacing:0px;fill:#f2f2f2;fill-opacity:1;stroke:none;stroke-width:1px;stroke-linecap:butt;stroke-linejoin:miter;stroke-opacity:1"
           id="path4345-2-1"
           inkscape:connector-curvature="0"
           sodipodi:nodetypes="scscscscs" /><path
           inkscape:connector-curvature="0"
           style="fill:#990000"
           d="m 285.8087,6.2825081 8.48622,49.8366329 c 1.0753,-0.615704 2.09255,-1.329826 3.05078,-2.140625 L 287.10828,6.4701882 c -0.438,-0.044 -0.86258,-0.1556804 -1.29958,-0.1876801 z"
           id="path4302-9-8"
           sodipodi:nodetypes="ccccc" /><path
           inkscape:connector-curvature="0"
           style="fill:#990000"
           d="m 292.28711,8.0175781 12.625,33.4648439 c 0.23032,-0.903651 0.42274,-1.837103 0.57617,-2.798828 0.0734,-0.630578 0.1321,-1.262601 0.16406,-1.900391 L 293.89844,8.8046875 c -0.52359,-0.2857569 -1.06071,-0.5466168 -1.61133,-0.7871094 z"
           id="path4304-3-7" /><path
           inkscape:connector-curvature="0"
           style="fill:#990000"
           d="m 282.76292,6.0996596 3.28981,52.7089344 c 1.27817,-0.163946 2.50389,-0.416752 3.67579,-0.757813 L 284.13039,6.1160299 c -0.469,-0.021 -0.89247,-0.00437 -1.36747,-0.01637 z"
           id="path4306-7-9"
           sodipodi:nodetypes="ccccc" /><path
           inkscape:connector-curvature="0"
           style="fill:#990000"
           d="m 288.96272,6.8877718 11.88494,43.3387902 c 0.78091,-1.055988 1.47656,-2.175732 2.07812,-3.367187 L 290.37891,7.2623866 c -0.441,-0.073 -0.9712,-0.3136149 -1.41619,-0.3746148 z"
           id="path4308-1-8"
           sodipodi:nodetypes="ccccc" /><path
           inkscape:connector-curvature="0"
           style="fill:#990000"
           d="m 296.42383,10.441406 9.27734,19.439453 0,-1.857421 c -0.67602,-5.964618 -2.73119,-10.871291 -6.17383,-14.716797 -0.9609,-1.078467 -1.99815,-2.028679 -3.10351,-2.865235 z"
           id="path4310-5-1" /><g
           id="g4312-9-4"
           transform="translate(252.38502,1.4152431)"><defs
             id="defs4314-8-4"><rect
               id="SVGID_3_-3-1"
               x="3.77"
               y="5.3559999"
               width="347.73001"
               height="58.855" /></defs><clipPath
             id="clipPath4513-6"><use
               xlink:href="#SVGID_3_-3-1"
               overflow="visible"
               id="use4515-7"
               style="overflow:visible"
               x="0"
               y="0"
               width="100%"
               height="100%" /></clipPath><path
             inkscape:connector-curvature="0"
             style="fill:#990000"
             clip-path="url(#SVGID_4_-8-3)"
             d="m 280.86431,6.0981691 c -2.07342,0.017018 -4.21415,0.4935017 -6.12993,1.0658934 -3.74061,1.1375367 -6.93987,3.1819505 -9.5918,6.1425785 -4.28386,4.785157 -6.42578,11.210937 -6.42578,19.277343 0,8.066406 2.14192,14.492187 6.42578,19.277344 4.01513,4.461261 9.27835,6.840607 15.78906,7.142578 z m -11.62603,20.1674559 1.38477,4.228516 4.43945,0 -3.59375,2.615234 1.38281,4.253906 -3.61328,-2.628906 -3.60742,2.628906 1.38086,-4.253906 -3.59766,-2.615234 4.44532,0 z"
             transform="translate(-252.38502,-1.4152431)"
             id="path4320-6-8"
             sodipodi:nodetypes="cccscccccccccccccc" /></g></g></g><path
       style="fill:none;fill-rule:evenodd;stroke:none;stroke-width:1px;stroke-linecap:butt;stroke-linejoin:miter;stroke-opacity:1"
       d="m 272.86517,50.987624 c 1.988,0.562644 8.85892,2.958902 10.92461,3.168972 2.61629,0.266064 9.46536,0.789419 12.09213,0.83394 0.83382,0.01413 5.00555,-0.277166 5.83758,-0.333576 0.81191,-0.05504 1.62336,-0.160106 2.41843,-0.333576 1.58158,-0.345073 2.59247,-0.867337 4.0863,-1.417698 0.41243,-0.151946 0.83669,-0.269988 1.25091,-0.41697 0.44767,-0.158849 0.88886,-0.335385 1.33431,-0.500364 0.30511,-0.113005 0.61409,-0.215648 0.91733,-0.333576 0.44873,-0.174506 0.5408,-0.2287 0.91733,-0.41697"
       id="path4745"
       inkscape:connector-curvature="0"
       sodipodi:nodetypes="cssssssssc" /><path
       style="color:#000000;clip-rule:nonzero;display:inline;overflow:visible;visibility:visible;opacity:1;isolation:auto;mix-blend-mode:normal;color-interpolation:sRGB;color-interpolation-filters:linearRGB;solid-color:#000000;solid-opacity:1;fill:none;fill-opacity:1;fill-rule:nonzero;stroke:none;stroke-width:0.5;stroke-linecap:butt;stroke-linejoin:miter;stroke-miterlimit:21;stroke-dasharray:none;stroke-dashoffset:8.4142561;stroke-opacity:1;color-rendering:auto;image-rendering:auto;shape-rendering:auto;text-rendering:auto;enable-background:accumulate"
       d="m 266.61062,47.318288 5.75418,2.585214 7.75564,2.335032 8.17262,1.501092 7.92243,0.583758 6.58812,-0.667152 6.50473,-1.918062 0,0 0,0"
       id="path4751"
       inkscape:path-effect="#path-effect4753"
       inkscape:original-d="m 266.61062,47.318288 5.75418,2.585214 7.75564,2.335032 8.17262,1.501092 7.92243,0.583758 6.58812,-0.667152 6.50473,-1.918062 0,0 0,0"
       inkscape:connector-curvature="0" /></g><g
     inkscape:groupmode="layer"
     id="layer6"
     inkscape:label="O w. orbit 3"
     style="display:inline"
     transform="translate(-60.855453,-0.06833114)"><path
       style="color:#000000;font-style:normal;font-variant:normal;font-weight:normal;font-stretch:normal;font-size:medium;line-height:normal;font-family:sans-serif;text-indent:0;text-align:start;text-decoration:none;text-decoration-line:none;text-decoration-style:solid;text-decoration-color:#000000;letter-spacing:normal;word-spacing:normal;text-transform:none;direction:ltr;block-progression:tb;writing-mode:lr-tb;baseline-shift:baseline;text-anchor:start;white-space:normal;clip-rule:nonzero;display:inline;overflow:visible;visibility:visible;opacity:1;isolation:auto;mix-blend-mode:normal;color-interpolation:sRGB;color-interpolation-filters:linearRGB;solid-color:#000000;solid-opacity:1;fill:#686868;fill-opacity:1;fill-rule:nonzero;stroke:none;stroke-width:3.9000001;stroke-linecap:butt;stroke-linejoin:miter;stroke-miterlimit:21;stroke-dasharray:none;stroke-dashoffset:8.4142561;stroke-opacity:1;color-rendering:auto;image-rendering:auto;shape-rendering:auto;text-rendering:auto;enable-background:accumulate"
       d="m 308.11426,18.434626 c 4.26722,6.269389 9.1118,12.452276 7.13577,18.885013 -1.34134,4.366606 -6.82975,6.57709 -11.20518,7.889358 -6.34739,1.903693 -13.38519,0.750074 -19.8708,-0.610186 -6.63117,-1.390789 -13.37838,-3.603199 -18.85534,-7.591883 -3.43718,-2.503176 -6.99667,-5.711843 -8.16579,-9.800023 -0.73553,-2.57199 -0.29621,-5.668091 1.1008,-7.949432 2.13863,-3.492439 10.0736,-7.032814 10.0736,-7.032814 0,0 -9.29381,1.283375 -13.44709,5.357661 -3.07917,3.020611 -4.32899,8.285111 -3.37626,12.491973 1.25159,5.526482 6.4696,9.594097 11.07293,12.898313 5.899,4.234232 13.09272,6.666521 20.19974,8.155519 6.98192,1.462787 14.44668,2.257907 21.39133,0.627322 5.28377,-1.240616 11.49729,-3.061204 14.36222,-7.670926 2.27381,-3.658599 1.83426,-8.850096 0.41237,-12.916273 -1.83916,-5.259433 -7.42903,-9.434297 -10.8283,-12.733622 z"
       id="path4684"
       inkscape:connector-curvature="0"
       sodipodi:nodetypes="caaaaaacsaaaaaac" /></g><path
     style="color:#000000;clip-rule:nonzero;display:inline;overflow:visible;visibility:visible;opacity:1;isolation:auto;mix-blend-mode:normal;color-interpolation:sRGB;color-interpolation-filters:linearRGB;solid-color:#000000;solid-opacity:1;fill:none;fill-opacity:1;fill-rule:nonzero;stroke:#686868;stroke-width:0.5;stroke-linecap:butt;stroke-linejoin:miter;stroke-miterlimit:21;stroke-dasharray:none;stroke-dashoffset:8.4142561;stroke-opacity:1;color-rendering:auto;image-rendering:auto;shape-rendering:auto;text-rendering:auto;enable-background:accumulate"
     d="m 226.4389,50.010184 c 1.21716,0.168763 2.43591,0.326022 3.65604,0.471748 1.06044,0.126654 2.12192,0.244596 3.1843,0.353811 0.98256,0.02687 1.96586,0.02687 2.94842,0 1.26024,-0.03447 2.51926,-0.11316 3.77398,-0.235874 l 4.1278,-0.589685 4.00985,-1.297306 3.06636,-1.297306 2.83049,-1.769054 2.35874,-2.004928"
     id="path4786"
     inkscape:path-effect="#path-effect4788"
     inkscape:original-d="m 226.4389,50.010184 3.65604,0.471748 3.1843,0.353811 2.94842,0 3.77398,-0.235874 4.1278,-0.589685 4.00985,-1.297306 3.06636,-1.297306 2.83049,-1.769054 2.35874,-2.004928"
     inkscape:connector-curvature="0" /><g
     inkscape:groupmode="layer"
     id="layer7"
     inkscape:label="text"
     style="display:inline"
     transform="translate(-60.855453,-0.06833114)"><path
       style="color:#000000;clip-rule:nonzero;display:inline;overflow:visible;visibility:visible;opacity:1;isolation:auto;mix-blend-mode:normal;color-interpolation:sRGB;color-interpolation-filters:linearRGB;solid-color:#000000;solid-opacity:1;fill:none;fill-opacity:1;fill-rule:nonzero;stroke:none;stroke-width:0.5;stroke-linecap:butt;stroke-linejoin:miter;stroke-miterlimit:21;stroke-dasharray:none;stroke-dashoffset:8.4142561;stroke-opacity:1;color-rendering:auto;image-rendering:auto;shape-rendering:auto;text-rendering:auto;enable-background:accumulate"
       d="m 287.17641,49.60184 6.25066,0.825558 6.36859,0.235874 6.60447,-1.179369 6.01478,-2.240802 4.1278,-2.830486 0,0 0,0"
       id="path4764"
       inkscape:path-effect="#path-effect4766"
       inkscape:original-d="m 287.17641,49.60184 6.25066,0.825558 6.36859,0.235874 6.60447,-1.179369 6.01478,-2.240802 4.1278,-2.830486 0,0 0,0"
       inkscape:connector-curvature="0" /><text
       xml:space="preserve"
       style="font-style:normal;font-weight:normal;font-size:6.25px;line-height:125%;font-family:sans-serif;letter-spacing:0px;word-spacing:0px;fill:#000000;fill-opacity:1;stroke:none;stroke-width:1px;stroke-linecap:butt;stroke-linejoin:miter;stroke-opacity:1"
       x="284.93561"
       y="27.429699"
       id="text4768"
       sodipodi:linespacing="125%"><tspan
         sodipodi:role="line"
         id="tspan4770"
         x="284.93561"
         y="27.429699"
         style="font-size:6.25px;fill:#ffffff" /></text>
<text
       xml:space="preserve"
       style="font-style:normal;font-weight:normal;font-size:5px;line-height:125%;font-family:sans-serif;letter-spacing:0px;word-spacing:0px;fill:#f2f2f2;fill-opacity:1;stroke:none;stroke-width:1px;stroke-linecap:butt;stroke-linejoin:miter;stroke-opacity:1;"
       id="text4772"
       sodipodi:linespacing="125%"
       transform="translate(60.383706,0)"><textPath
         xlink:href="#path4786"
         id="textPath4790"><tspan
   style="font-size:5px;fill:#f2f2f2;"
   id="tspan4774">Stony Brook</tspan></textPath></text>
<text
       xml:space="preserve"
       style="font-style:normal;font-weight:normal;font-size:6.25px;line-height:125%;font-family:sans-serif;letter-spacing:0px;word-spacing:0px;fill:#000000;fill-opacity:1;stroke:none;stroke-width:1px;stroke-linecap:butt;stroke-linejoin:miter;stroke-opacity:1"
       x="297.88336"
       y="89.015289"
       id="text4782"
       sodipodi:linespacing="125%"><tspan
         sodipodi:role="line"
         id="tspan4784"
         x="297.88336"
         y="89.015289" /></text>
</g></svg>