<?xml version="1.0" encoding="UTF-8" standalone="no"?>
<!-- Generator: Adobe Illustrator 16.0.0, SVG Export Plug-In . SVG Version: 6.00 Build 0)  -->

<svg
   xmlns:dc="http://purl.org/dc/elements/1.1/"
   xmlns:cc="http://creativecommons.org/ns#"
   xmlns:rdf="http://www.w3.org/1999/02/22-rdf-syntax-ns#"
   xmlns:svg="http://www.w3.org/2000/svg"
   xmlns="http://www.w3.org/2000/svg"
   xmlns:xlink="http://www.w3.org/1999/xlink"
   xmlns:sodipodi="http://sodipodi.sourceforge.net/DTD/sodipodi-0.dtd"
   xmlns:inkscape="http://www.inkscape.org/namespaces/inkscape"
   version="1.1"
   id="Layer_1"
   x="0px"
   y="0px"
   width="83.438919"
   height="65.014984"
   viewBox="0 0 83.438922 65.014984"
   enable-background="new 0 0 359 68"
   xml:space="preserve"
   inkscape:version="0.91 r13725"
   sodipodi:docname="planet.svg"
   inkscape:export-filename="/Users/melissahoffman1/Desktop/sbu-astro/planet.png"
   inkscape:export-xdpi="300"
   inkscape:export-ydpi="300"><metadata
     id="metadata4326"><rdf:RDF><cc:Work
         rdf:about=""><dc:format>image/svg+xml</dc:format><dc:type
           rdf:resource="http://purl.org/dc/dcmitype/StillImage" /><dc:title></dc:title></cc:Work></rdf:RDF></metadata><defs
     id="defs4324"><inkscape:path-effect
       effect="spiro"
       id="path-effect4788"
       is_visible="true" /><inkscape:path-effect
       effect="spiro"
       id="path-effect4766"
       is_visible="true" /><inkscape:path-effect
       effect="spiro"
       id="path-effect4753"
       is_visible="true" /><inkscape:path-effect
       effect="spiro"
       id="path-effect4710"
       is_visible="true" /><clipPath
       id="SVGID_4_-8"><rect
         height="58.855"
         width="347.73001"
         y="5.3559999"
         x="3.77"
         id="use4318-3" /></clipPath><clipPath
       id="SVGID_4_-8-3"><use
         xlink:href="#SVGID_3_-3-1"
         overflow="visible"
         id="use4318-3-4"
         style="overflow:visible"
         x="0"
         y="0"
         width="100%"
         height="100%" /></clipPath><clipPath
       id="SVGID_4_-8-3-8"><use
         xlink:href="#SVGID_3_-3-1"
         overflow="visible"
         id="use4318-3-4-1"
         style="overflow:visible"
         x="0"
         y="0"
         width="100%"
         height="100%" /></clipPath></defs><sodipodi:namedview
     pagecolor="#ffffff"
     bordercolor="#666666"
     borderopacity="1"
     objecttolerance="10"
     gridtolerance="10"
     guidetolerance="10"
     inkscape:pageopacity="0"
     inkscape:pageshadow="2"
     inkscape:window-width="1172"
     inkscape:window-height="618"
     id="namedview4322"
     showgrid="false"
     fit-margin-top="2"
     fit-margin-left="2"
     fit-margin-right="2"
     fit-margin-bottom="2"
     inkscape:zoom="5.9956352"
     inkscape:cx="31.325226"
     inkscape:cy="28.537021"
     inkscape:window-x="30"
     inkscape:window-y="36"
     inkscape:window-maximized="0"
     inkscape:current-layer="g4260" /><g
     transform="translate(-232.35525,-23.490618)"
     style="font-style:normal;font-weight:normal;font-size:40px;line-height:125%;font-family:sans-serif;letter-spacing:0px;word-spacing:0px;fill:#000000;fill-opacity:1;stroke:none;stroke-width:1px;stroke-linecap:butt;stroke-linejoin:miter;stroke-opacity:1"
     id="flowRoot4328" /><g
     inkscape:groupmode="layer"
     id="layer4"
     inkscape:label="O w. orbit"
     style="display:inline"
     transform="translate(-239.35052,-2.8718904)" /><g
     inkscape:groupmode="layer"
     id="layer6"
     inkscape:label="O w. orbit 3"
     style="display:inline"
     transform="translate(-239.35052,-2.8718904)" /><g
     inkscape:groupmode="layer"
     id="layer7"
     inkscape:label="text"
     style="display:inline"
     transform="translate(-239.35052,-2.8718904)"><text
       xml:space="preserve"
       style="font-style:normal;font-weight:normal;font-size:6.25px;line-height:125%;font-family:sans-serif;letter-spacing:0px;word-spacing:0px;fill:#000000;fill-opacity:1;stroke:none;stroke-width:1px;stroke-linecap:butt;stroke-linejoin:miter;stroke-opacity:1"
       x="284.93561"
       y="27.429699"
       id="text4768"
       sodipodi:linespacing="125%"><tspan
         sodipodi:role="line"
         id="tspan4770"
         x="284.93561"
         y="27.429699"
         style="font-size:6.25px;fill:#ffffff" /></text>
<g
       id="g4260"><path
         sodipodi:nodetypes="cssssssssc"
         inkscape:connector-curvature="0"
         id="path4745"
         d="m 266.32861,58.134851 c 2.29105,0.648412 10.20935,3.409947 12.58992,3.652039 3.01511,0.306622 10.90823,0.909755 13.93542,0.961063 0.96092,0.01628 5.76857,-0.319416 6.72744,-0.384425 0.93567,-0.06343 1.87082,-0.184512 2.78708,-0.384425 1.82267,-0.397675 2.98766,-0.999551 4.7092,-1.633807 0.4753,-0.175108 0.96424,-0.311144 1.4416,-0.480532 0.51591,-0.183063 1.02435,-0.38651 1.53771,-0.576637 0.35162,-0.130232 0.7077,-0.248521 1.05716,-0.384426 0.51713,-0.201107 0.62324,-0.263562 1.05717,-0.480531"
         style="display:inline;fill:none;fill-rule:evenodd;stroke:none;stroke-width:1px;stroke-linecap:butt;stroke-linejoin:miter;stroke-opacity:1" /><path
         inkscape:connector-curvature="0"
         inkscape:original-d="m 259.12064,53.906174 6.63133,2.979295 8.93788,2.690976 9.41843,1.729914 9.1301,0.672744 7.59239,-0.768851 7.49628,-2.210444 0,0 0,0"
         inkscape:path-effect="#path-effect4753"
         id="path4751"
         d="m 259.12064,53.906174 6.63133,2.979295 8.93788,2.690976 9.41843,1.729914 9.1301,0.672744 7.59239,-0.768851 7.49628,-2.210444 0,0 0,0"
         style="color:#000000;clip-rule:nonzero;display:inline;overflow:visible;visibility:visible;opacity:1;isolation:auto;mix-blend-mode:normal;color-interpolation:sRGB;color-interpolation-filters:linearRGB;solid-color:#000000;solid-opacity:1;fill:none;fill-opacity:1;fill-rule:nonzero;stroke:none;stroke-width:0.5;stroke-linecap:butt;stroke-linejoin:miter;stroke-miterlimit:21;stroke-dasharray:none;stroke-dashoffset:8.4142561;stroke-opacity:1;color-rendering:auto;image-rendering:auto;shape-rendering:auto;text-rendering:auto;enable-background:accumulate" /><g
         id="g4347"
         transform="translate(-0.70762155,0)"><path
           d="M 281.71991,4.5990203 A 27.816046,28.186926 0 0 1 309.99429,32.312921 27.816046,28.186926 0 0 1 282.64583,60.965063 27.816046,28.186926 0 0 1 254.36993,33.252758 27.816046,28.186926 0 0 1 281.71681,4.5990726"
           sodipodi:open="true"
           sodipodi:end="4.695661"
           sodipodi:start="4.6957724"
           sodipodi:ry="28.186926"
           sodipodi:rx="27.816046"
           sodipodi:cy="32.782055"
           sodipodi:cx="282.1821"
           sodipodi:type="arc"
           id="path4186"
           style="color:#000000;clip-rule:nonzero;display:inline;overflow:visible;visibility:visible;opacity:1;isolation:auto;mix-blend-mode:normal;color-interpolation:sRGB;color-interpolation-filters:linearRGB;solid-color:#000000;solid-opacity:1;fill:#000000;fill-opacity:1;fill-rule:nonzero;stroke:none;stroke-width:0.5;stroke-linecap:butt;stroke-linejoin:miter;stroke-miterlimit:21;stroke-dasharray:none;stroke-dashoffset:8.4142561;stroke-opacity:1;color-rendering:auto;image-rendering:auto;shape-rendering:auto;text-rendering:auto;enable-background:accumulate" /><g
           transform="matrix(1.0345347,0,0,1.0345347,-81.363826,29.408873)"
           id="g4326"><g
             transform="matrix(1.0926862,0,0,1.0794515,52.752604,-33.136499)"
             id="g4420-4-4"
             style="display:inline"><g
               id="g4292-5-0"
               transform="translate(252.38502,1.4152431)"><defs
                 id="defs4294-6-5"><rect
                   id="SVGID_1_-3-6"
                   x="3.77"
                   y="5.3559999"
                   width="347.73001"
                   height="58.855" /></defs><clipPath
                 id="SVGID_2_-1-7"><use
                   xlink:href="#SVGID_1_-3-6"
                   overflow="visible"
                   id="use4298-9-2"
                   style="overflow:visible"
                   x="0"
                   y="0"
                   width="100%"
                   height="100%" /></clipPath></g><g
               transform="matrix(0.92538284,0,0,0.92538284,12.083802,3.8001022)"
               id="g4446-4-9"><path
                 inkscape:connector-curvature="0"
                 style="font-style:normal;font-weight:normal;font-size:70px;line-height:125%;font-family:sans-serif;letter-spacing:0px;word-spacing:0px;fill:#ffffff;fill-opacity:1;stroke:none;stroke-width:1px;stroke-linecap:butt;stroke-linejoin:miter;stroke-opacity:1"
                 d="M 111.66016,-23.755859 A 23.829897,24.147629 0 0 0 88.232422,0.79101562 23.829897,24.147629 0 0 0 112.45703,24.533203 23.829897,24.147629 0 0 0 135.88672,-0.01367188 23.829897,24.147629 0 0 0 111.66406,-23.755859 l -0.004,0 z"
                 transform="matrix(0.98896996,0,0,1.0010953,171.48157,31.941311)"
                 id="path4345-2-1" /><path
                 inkscape:connector-curvature="0"
                 style="fill:#990000"
                 d="m 115.98438,-23.410156 7.72851,44.83789 a 23.829897,24.147629 0 0 0 2.98633,-2.015625 l -9.27344,-42.519531 a 23.829897,24.147629 0 0 0 -1.4414,-0.302734 z"
                 transform="matrix(0.98896996,0,0,1.0010953,171.48157,31.941311)"
                 id="path4302-9-8" /><path
                 inkscape:connector-curvature="0"
                 style="fill:#990000"
                 d="m 123.30078,-20.892578 11.19727,29.3242186 a 23.829897,24.147629 0 0 0 1.02929,-3.9257812 L 125.21289,-19.746094 a 23.829897,24.147629 0 0 0 -1.91211,-1.146484 z"
                 transform="matrix(0.98896996,0,0,1.0010953,171.48157,31.941311)"
                 id="path4304-3-7" /><path
                 inkscape:connector-curvature="0"
                 style="fill:#990000"
                 d="m 112.65625,-23.722656 3.0293,47.949218 a 23.829897,24.147629 0 0 0 3.58593,-0.84375 l -5.13476,-47.046874 a 23.829897,24.147629 0 0 0 -1.48047,-0.05859 z"
                 transform="matrix(0.98896996,0,0,1.0010953,171.48157,31.941311)"
                 id="path4306-7-9" /><path
                 inkscape:connector-curvature="0"
                 style="fill:#990000"
                 d="m 119.48438,-22.529297 10.70312,38.558594 a 23.829897,24.147629 0 0 0 2.13086,-2.972656 l -11.22852,-35.007813 a 23.829897,24.147629 0 0 0 -1.60546,-0.578125 z"
                 transform="matrix(0.98896996,0,0,1.0010953,171.48157,31.941311)"
                 id="path4308-1-8" /><path
                 inkscape:connector-curvature="0"
                 style="fill:#990000"
                 d="m 128.44336,-17.115234 7.27344,15.0566402 0,-0.2617187 a 23.829897,24.147629 0 0 0 -7.27344,-14.7949215 z"
                 transform="matrix(0.98896996,0,0,1.0010953,171.48157,31.941311)"
                 id="path4310-5-1" /><g
                 transform="translate(252.38502,1.4152431)"
                 id="g4312-9-4"><defs
                   id="defs4314-8-4"><rect
                     height="58.855"
                     width="347.73001"
                     y="5.3559999"
                     x="3.77"
                     id="SVGID_3_-3-1" /></defs><clipPath
                   id="clipPath4513-6"><use
                     height="100%"
                     width="100%"
                     y="0"
                     x="0"
                     style="overflow:visible"
                     id="use4515-7"
                     overflow="visible"
                     xlink:href="#SVGID_3_-3-1" /></clipPath></g></g></g><path
             inkscape:connector-curvature="0"
             style="color:#000000;clip-rule:nonzero;display:inline;overflow:visible;visibility:visible;opacity:1;isolation:auto;mix-blend-mode:normal;color-interpolation:sRGB;color-interpolation-filters:linearRGB;solid-color:#000000;solid-opacity:1;fill:#990000;fill-opacity:1;fill-rule:nonzero;stroke:none;stroke-width:0.5;stroke-linecap:butt;stroke-linejoin:miter;stroke-miterlimit:21;stroke-dasharray:none;stroke-dashoffset:8.4142561;stroke-opacity:1;color-rendering:auto;image-rendering:auto;shape-rendering:auto;text-rendering:auto;enable-background:accumulate"
             d="M 110.60547,-23.699219 A 23.829897,24.147629 0 0 0 88.232422,0.79101562 23.829897,24.147629 0 0 0 110.66602,24.472656 l -0.0606,-48.171875 z m -11.757814,18.0292971 1.400394,4.2246094 4.48828,0 -3.63477,2.6113281 1.39844,4.25 -3.652344,-2.6269531 -3.648437,2.6269531 1.396484,-4.25 -3.638672,-2.6113281 4.496094,0 1.394531,-4.2246094 z"
             transform="translate(239.35052,2.8718904)"
             id="path4186-9" /></g></g><path
         sodipodi:nodetypes="caaaaaacsaaaaaac"
         inkscape:connector-curvature="0"
         id="path4684-1"
         d="m 307.21725,20.495222 c 4.99071,6.794186 10.28347,10.570969 8.70467,16.623242 -1.31653,5.046881 -8.0849,7.13439 -13.10496,8.54976 -7.45895,2.102997 -15.63642,0.837685 -23.23982,-0.661263 -7.62089,-1.502397 -15.4384,-3.773196 -21.802,-8.227385 -3.82521,-2.677452 -7.69159,-6.179359 -9.1333,-10.620361 -0.77517,-2.387799 -0.84746,-5.469123 0.62029,-7.505827 2.42131,-3.359895 11.42247,-4.887955 11.42247,-4.887955 0,0 -10.86954,1.390803 -15.72699,5.806139 -3.60123,3.273459 -4.87001,8.647856 -3.83075,13.0659 1.4544,6.182929 7.67515,10.440124 12.95031,13.978004 6.98285,4.683175 15.37206,7.229007 23.62451,8.838199 8.18824,1.596672 16.86989,2.469438 25.01814,0.679834 6.10183,-1.340148 13.41114,-3.063048 16.79728,-8.313043 2.53046,-3.923327 2.14886,-9.636476 0.48228,-13.997467 -2.19738,-5.749937 -8.80652,-9.752274 -12.78213,-13.327777 z"
         style="color:#000000;font-style:normal;font-variant:normal;font-weight:normal;font-stretch:normal;font-size:medium;line-height:normal;font-family:sans-serif;text-indent:0;text-align:start;text-decoration:none;text-decoration-line:none;text-decoration-style:solid;text-decoration-color:#000000;letter-spacing:normal;word-spacing:normal;text-transform:none;direction:ltr;block-progression:tb;writing-mode:lr-tb;baseline-shift:baseline;text-anchor:start;white-space:normal;clip-rule:nonzero;display:inline;overflow:visible;visibility:visible;opacity:1;isolation:auto;mix-blend-mode:normal;color-interpolation:sRGB;color-interpolation-filters:linearRGB;solid-color:#000000;solid-opacity:1;fill:#ffffff;fill-opacity:1;fill-rule:nonzero;stroke:none;stroke-width:3.9000001;stroke-linecap:butt;stroke-linejoin:miter;stroke-miterlimit:21;stroke-dasharray:none;stroke-dashoffset:8.4142561;stroke-opacity:1;color-rendering:auto;image-rendering:auto;shape-rendering:auto;text-rendering:auto;enable-background:accumulate" /><path
         sodipodi:nodetypes="caaaaaacsaaaaaac"
         inkscape:connector-curvature="0"
         id="path4684"
         d="m 306.95095,20.094334 c 4.9177,6.694794 10.32453,11.352173 8.57733,17.658388 -1.37224,4.952888 -7.96663,7.030021 -12.91325,8.424685 -7.34983,2.072232 -15.40491,0.811369 -22.89984,-0.651589 -7.58768,-1.481064 -15.33919,-3.756233 -21.72958,-8.107026 -3.87786,-2.640176 -8.1084,-5.958034 -9.41056,-10.464995 -0.69429,-2.403058 -0.18921,-5.363419 1.26861,-7.396025 2.4866,-3.467006 11.25537,-6.094777 11.25537,-6.094777 0,0 -10.71053,1.370457 -15.49692,5.721201 -3.54855,3.225572 -4.98888,8.84729 -3.89092,13.339606 1.44238,5.901477 7.4558,10.245097 12.76085,13.773519 6.79822,4.521542 15.08853,7.118872 23.27891,8.708905 8.04622,1.562043 16.64889,2.411115 24.65215,0.669888 6.08921,-1.324797 13.2499,-3.268919 16.55155,-8.191431 2.62042,-3.90685 2.11387,-9.450612 0.47523,-13.792697 -2.11951,-5.616307 -8.56148,-10.074454 -12.47893,-13.597652 z"
         style="color:#000000;font-style:normal;font-variant:normal;font-weight:normal;font-stretch:normal;font-size:medium;line-height:normal;font-family:sans-serif;text-indent:0;text-align:start;text-decoration:none;text-decoration-line:none;text-decoration-style:solid;text-decoration-color:#000000;letter-spacing:normal;word-spacing:normal;text-transform:none;direction:ltr;block-progression:tb;writing-mode:lr-tb;baseline-shift:baseline;text-anchor:start;white-space:normal;clip-rule:nonzero;display:inline;overflow:visible;visibility:visible;opacity:1;isolation:auto;mix-blend-mode:normal;color-interpolation:sRGB;color-interpolation-filters:linearRGB;solid-color:#000000;solid-opacity:1;fill:#000000;fill-opacity:1;fill-rule:nonzero;stroke:none;stroke-width:3.9000001;stroke-linecap:butt;stroke-linejoin:miter;stroke-miterlimit:21;stroke-dasharray:none;stroke-dashoffset:8.4142561;stroke-opacity:1;color-rendering:auto;image-rendering:auto;shape-rendering:auto;text-rendering:auto;enable-background:accumulate" /><path
         inkscape:connector-curvature="0"
         inkscape:original-d="m 277.4143,53.195242 c 0,0 6.15158,0.691558 9.23579,0.946321 1.277,0.105483 2.55577,0.200778 3.83649,0.240957 1.13207,0.03552 2.2658,0.03534 3.39787,0 1.45188,-0.04533 2.90426,-0.123695 4.34927,-0.27183 1.59342,-0.163349 3.19649,-0.318462 4.75703,-0.679574 1.57729,-0.364989 3.10395,-0.929939 4.62109,-1.495063 1.19856,-0.446457 2.39897,-0.9051 3.53379,-1.495063 1.13767,-0.591442 2.22706,-1.281708 3.26196,-2.038722 0.95982,-0.702097 2.7183,-2.310553 2.7183,-2.310553"
         inkscape:path-effect="#path-effect4788"
         id="path4786"
         d="m 277.4143,53.195242 c 3.07173,0.378243 6.15118,0.693771 9.23579,0.946321 1.27721,0.10457 2.55572,0.198368 3.83649,0.240957 1.13219,0.03765 2.2656,0.03525 3.39787,0 1.45208,-0.04521 2.90209,-0.144417 4.34927,-0.27183 1.59696,-0.1406 3.19558,-0.316344 4.75703,-0.679574 1.57808,-0.367098 3.10535,-0.922673 4.62109,-1.495063 1.19715,-0.452081 2.39235,-0.916566 3.53379,-1.495063 1.14509,-0.58035 2.23133,-1.273311 3.26196,-2.038722 0.9554,-0.709542 1.86411,-1.481944 2.7183,-2.310553"
         style="color:#000000;clip-rule:nonzero;display:inline;overflow:visible;visibility:visible;opacity:1;isolation:auto;mix-blend-mode:normal;color-interpolation:sRGB;color-interpolation-filters:linearRGB;solid-color:#000000;solid-opacity:1;fill:none;fill-opacity:1;fill-rule:nonzero;stroke:#000000;stroke-width:0.57621825;stroke-linecap:butt;stroke-linejoin:miter;stroke-miterlimit:21;stroke-dasharray:none;stroke-dashoffset:8.4142561;stroke-opacity:1;color-rendering:auto;image-rendering:auto;shape-rendering:auto;text-rendering:auto;enable-background:accumulate"
         sodipodi:nodetypes="caaaaaaaac" /><path
         inkscape:connector-curvature="0"
         inkscape:original-d="m 282.82141,56.537823 7.20349,0.951403 7.33939,0.27183 7.61124,-1.359148 6.93165,-2.582382 4.75703,-3.261955 0,0 0,0"
         inkscape:path-effect="#path-effect4766"
         id="path4764"
         d="m 282.82141,56.537823 7.20349,0.951403 7.33939,0.27183 7.61124,-1.359148 6.93165,-2.582382 4.75703,-3.261955 0,0 0,0"
         style="color:#000000;clip-rule:nonzero;display:inline;overflow:visible;visibility:visible;opacity:1;isolation:auto;mix-blend-mode:normal;color-interpolation:sRGB;color-interpolation-filters:linearRGB;solid-color:#000000;solid-opacity:1;fill:none;fill-opacity:1;fill-rule:nonzero;stroke:none;stroke-width:0.5;stroke-linecap:butt;stroke-linejoin:miter;stroke-miterlimit:21;stroke-dasharray:none;stroke-dashoffset:8.4142561;stroke-opacity:1;color-rendering:auto;image-rendering:auto;shape-rendering:auto;text-rendering:auto;enable-background:accumulate" /><text
         sodipodi:linespacing="125%"
         id="text4772"
         style="font-style:normal;font-weight:normal;font-size:5px;line-height:125%;font-family:sans-serif;letter-spacing:0px;word-spacing:0px;fill:#ffffff;fill-opacity:1;stroke:none;stroke-width:1px;stroke-linecap:butt;stroke-linejoin:miter;stroke-opacity:1"
         xml:space="preserve"
         x="-0.47174755"
         transform="translate(0.5408336,-0.70762153)"><textPath
           id="textPath4790"
           xlink:href="#path4786"
           style="font-size:6.25px;fill:#ffffff">Stony Brook</textPath></text>
</g><text
       xml:space="preserve"
       style="font-style:normal;font-weight:normal;font-size:6.25px;line-height:125%;font-family:sans-serif;letter-spacing:0px;word-spacing:0px;fill:#000000;fill-opacity:1;stroke:none;stroke-width:1px;stroke-linecap:butt;stroke-linejoin:miter;stroke-opacity:1"
       x="297.88336"
       y="89.015289"
       id="text4782"
       sodipodi:linespacing="125%"><tspan
         sodipodi:role="line"
         id="tspan4784"
         x="297.88336"
         y="89.015289" /></text>
</g></svg>