<?xml version="1.0" encoding="UTF-8" standalone="no"?>
<!-- Created with Inkscape (http://www.inkscape.org/) -->

<svg
   xmlns:dc="http://purl.org/dc/elements/1.1/"
   xmlns:cc="http://creativecommons.org/ns#"
   xmlns:rdf="http://www.w3.org/1999/02/22-rdf-syntax-ns#"
   xmlns:svg="http://www.w3.org/2000/svg"
   xmlns="http://www.w3.org/2000/svg"
   xmlns:xlink="http://www.w3.org/1999/xlink"
   xmlns:sodipodi="http://sodipodi.sourceforge.net/DTD/sodipodi-0.dtd"
   xmlns:inkscape="http://www.inkscape.org/namespaces/inkscape"
   width="3.6528864in"
   height="3.8531885in"
   viewBox="0 0 328.75977 346.78695"
   id="svg2"
   version="1.1"
   inkscape:version="0.91 r13725"
   sodipodi:docname="shield.svg"
   inkscape:export-filename="/Users/melissahoffman1/Desktop/sbu-astro/shieldv1.png"
   inkscape:export-xdpi="300"
   inkscape:export-ydpi="300">
  <defs
     id="defs4">
    <linearGradient
       inkscape:collect="always"
       id="linearGradient5694">
      <stop
         style="stop-color:#990000;stop-opacity:1;"
         offset="0"
         id="stop5696" />
      <stop
         style="stop-color:#990000;stop-opacity:0;"
         offset="1"
         id="stop5698" />
    </linearGradient>
    <clipPath
       id="SVGID_4_">
      <use
         xlink:href="#SVGID_3_"
         overflow="visible"
         id="use4334"
         style="overflow:visible"
         x="0"
         y="0"
         width="100%"
         height="100%" />
    </clipPath>
    <clipPath
       id="SVGID_2_">
      <rect
         height="58.855"
         width="347.73001"
         y="5.3559999"
         x="3.77"
         id="use4314" />
    </clipPath>
    <linearGradient
       inkscape:collect="always"
       xlink:href="#linearGradient5694"
       id="linearGradient5700"
       x1="200.40805"
       y1="386.96124"
       x2="175.49667"
       y2="310.18964"
       gradientUnits="userSpaceOnUse" />
    <linearGradient
       inkscape:collect="always"
       xlink:href="#linearGradient5694"
       id="linearGradient5702"
       gradientUnits="userSpaceOnUse"
       x1="200.40805"
       y1="386.96124"
       x2="175.49667"
       y2="310.18964" />
    <linearGradient
       inkscape:collect="always"
       xlink:href="#linearGradient5694"
       id="linearGradient5704"
       gradientUnits="userSpaceOnUse"
       x1="200.40805"
       y1="386.96124"
       x2="175.49667"
       y2="310.18964" />
    <linearGradient
       inkscape:collect="always"
       xlink:href="#linearGradient5694"
       id="linearGradient5706"
       gradientUnits="userSpaceOnUse"
       x1="200.40805"
       y1="386.96124"
       x2="175.49667"
       y2="310.18964" />
    <linearGradient
       inkscape:collect="always"
       xlink:href="#linearGradient5694"
       id="linearGradient5708"
       gradientUnits="userSpaceOnUse"
       x1="200.40805"
       y1="386.96124"
       x2="175.49667"
       y2="310.18964" />
    <linearGradient
       inkscape:collect="always"
       xlink:href="#linearGradient5694"
       id="linearGradient5710"
       gradientUnits="userSpaceOnUse"
       x1="200.40805"
       y1="386.96124"
       x2="175.49667"
       y2="310.18964" />
    <linearGradient
       inkscape:collect="always"
       xlink:href="#linearGradient5694"
       id="linearGradient5712"
       gradientUnits="userSpaceOnUse"
       x1="200.40805"
       y1="386.96124"
       x2="175.49667"
       y2="310.18964" />
  </defs>
  <sodipodi:namedview
     id="base"
     pagecolor="#ffffff"
     bordercolor="#666666"
     borderopacity="1.0"
     inkscape:pageopacity="0.0"
     inkscape:pageshadow="2"
     inkscape:zoom="0.98994949"
     inkscape:cx="-174.37102"
     inkscape:cy="166.00058"
     inkscape:document-units="px"
     inkscape:current-layer="layer4"
     showgrid="false"
     fit-margin-top="0.5"
     fit-margin-left="0.5"
     fit-margin-right="0.5"
     fit-margin-bottom="0.5"
     units="in"
     inkscape:window-width="1280"
     inkscape:window-height="697"
     inkscape:window-x="0"
     inkscape:window-y="1"
     inkscape:window-maximized="1" />
  <metadata
     id="metadata7">
    <rdf:RDF>
      <cc:Work
         rdf:about="">
        <dc:format>image/svg+xml</dc:format>
        <dc:type
           rdf:resource="http://purl.org/dc/dcmitype/StillImage" />
        <dc:title />
      </cc:Work>
    </rdf:RDF>
  </metadata>
  <g
     inkscape:groupmode="layer"
     id="layer4"
     inkscape:label="lines"
     transform="translate(8.6345112,17.220662)">
    <g
       id="g5660"
       style="opacity:0.95999995;fill:url(#linearGradient5700);fill-opacity:1"
       transform="matrix(1.734049,0,0,1.734049,-124.43562,-419.60321)">
      <g
         id="g5687"
         style="fill:url(#linearGradient5712);fill-opacity:1">
        <path
           style="fill:url(#linearGradient5702);fill-opacity:1"
           d="m 166.85742,315.33008 15.03125,84.9707 a 84.642853,88.214287 0 0 0 7.20313,-3.59375 l -18.24414,-81.37695 -3.99024,0 z"
           id="path4318"
           inkscape:connector-curvature="0" />
        <path
           style="fill:url(#linearGradient5704);fill-opacity:1"
           d="m 184.74805,315.33008 25.875,64.05078 a 84.642853,88.214287 0 0 0 4.5664,-5.49219 l -26.5664,-58.55859 -3.875,0 z"
           id="path4320"
           inkscape:connector-curvature="0" />
        <path
           style="fill:url(#linearGradient5706);fill-opacity:1"
           d="m 157.47656,315.31055 5.78516,90.77343 a 84.642853,88.214287 0 0 0 8.20898,-1.9121 l -10.03906,-88.86133 -3.95508,0 z"
           id="path4322"
           inkscape:connector-curvature="0" />
        <path
           style="fill:url(#linearGradient5708);fill-opacity:1"
           d="m 176.21289,315.33008 21.71094,75.61523 a 84.642853,88.214287 0 0 0 5.87305,-4.75976 l -23.63868,-70.85547 -3.94531,0 z"
           id="path4324"
           inkscape:connector-curvature="0" />
        <path
           style="fill:url(#linearGradient5710);fill-opacity:1"
           d="m 194.68359,315.33008 25.86719,50.6289 a 84.642853,88.214287 0 0 0 6.82813,-13.85351 l 0.14062,-4.4082 -28.59961,-32.36719 -4.23633,0 z"
           id="path4326"
           inkscape:connector-curvature="0" />
      </g>
    </g>
  </g>
  <g
     inkscape:label="text"
     inkscape:groupmode="layer"
     id="layer1"
     transform="translate(-84.097077,-60.778414)">
    <flowRoot
       xml:space="preserve"
       id="flowRoot4144"
       style="font-style:normal;font-weight:normal;font-size:40px;line-height:125%;font-family:sans-serif;letter-spacing:0px;word-spacing:0px;writing-mode:tb-rl;fill:#808080;fill-opacity:1;stroke:none;stroke-width:1px;stroke-linecap:butt;stroke-linejoin:miter;stroke-opacity:1"
       transform="matrix(1.734049,0,0,1.734049,-160.5191,-577.96544)"><flowRegion
         id="flowRegion4146"><rect
           id="rect4148"
           width="82.857147"
           height="148.57143"
           x="137.14285"
           y="458.07648"
           style="writing-mode:tb-rl;fill:#808080" /></flowRegion><flowPara
         id="flowPara4150">BU</flowPara></flowRoot>    <g
       id="g4328"
       transform="matrix(3.0756884,0,0,3.0756884,-183.10502,-33.957425)">
      <defs
         id="defs4330">
        <rect
           id="SVGID_3_"
           x="3.77"
           y="5.3559999"
           width="347.73001"
           height="58.855" />
      </defs>
      <clipPath
         id="clipPath5468">
        <use
           xlink:href="#SVGID_3_"
           overflow="visible"
           id="use5470"
           style="overflow:visible"
           x="0"
           y="0"
           width="100%"
           height="100%" />
      </clipPath>
    </g>
    <g
       style="font-style:normal;font-weight:normal;font-size:40px;line-height:125%;font-family:sans-serif;letter-spacing:0px;word-spacing:0px;fill:#000000;fill-opacity:1;stroke:none;stroke-width:1px;stroke-linecap:butt;stroke-linejoin:miter;stroke-opacity:1"
       id="flowRoot4136"
       transform="matrix(1.734049,0,0,1.734049,-31.471796,-341.17836)">
      <path
         d="m 105.95703,289.81528 -5.35156,14.51172 10.72266,0 -5.3711,-14.51172 z m -2.22656,-3.88672 4.47266,0 11.11328,29.16016 -4.10157,0 -2.65625,-7.48047 -13.14453,0 -2.656248,7.48047 -4.160156,0 11.132814,-29.16016 z"
         id="path5524"
         inkscape:connector-curvature="0" />
      <path
         d="m 143.03516,286.88559 0,3.84766 q -2.2461,-1.07422 -4.23829,-1.60156 -1.99218,-0.52735 -3.84765,-0.52735 -3.22266,0 -4.98047,1.25 -1.73828,1.25 -1.73828,3.55469 0,1.93359 1.15234,2.92969 1.17188,0.97656 4.41406,1.58203 l 2.38282,0.48828 q 4.41406,0.83984 6.5039,2.96875 2.10938,2.10937 2.10938,5.66406 0,4.23828 -2.85156,6.42578 -2.83204,2.1875 -8.32032,2.1875 -2.07031,0 -4.41406,-0.46875 -2.32422,-0.46875 -4.82422,-1.38672 l 0,-4.0625 q 2.40235,1.34766 4.70703,2.03125 2.30469,0.6836 4.53125,0.6836 3.37891,0 5.21485,-1.32813 1.83593,-1.32812 1.83593,-3.78906 0,-2.14844 -1.32812,-3.35937 -1.30859,-1.21094 -4.31641,-1.81641 l -2.40234,-0.46875 q -4.41406,-0.87891 -6.38672,-2.75391 -1.97265,-1.875 -1.97265,-5.21484 0,-3.86719 2.71484,-6.09375 2.73437,-2.22656 7.51953,-2.22656 2.05078,0 4.17969,0.37109 2.1289,0.37109 4.35547,1.11328 z"
         id="path5526"
         inkscape:connector-curvature="0"
         style="fill:#808080" />
      <path
         d="m 146.98047,285.92856 24.66797,0 0,3.32031 -10.35157,0 0,25.83985 -3.96484,0 0,-25.83985 -10.35156,0 0,-3.32031 z"
         id="path5528"
         inkscape:connector-curvature="0" />
      <path
         d="m 189.9077,301.41684 q 1.26953,0.42969 2.46094,1.83594 1.21094,1.40625 2.42187,3.86719 l 4.00391,7.96875 -4.23828,0 -3.73047,-7.48047 q -1.44531,-2.92969 -2.8125,-3.88672 -1.34766,-0.95703 -3.69141,-0.95703 l -4.29687,0 0,12.32422 -3.94531,0 0,-29.16016 8.90625,0 q 5,0 7.46093,2.08984 2.46094,2.08985 2.46094,6.3086 0,2.7539 -1.28906,4.57031 -1.26953,1.81641 -3.71094,2.51953 z m -9.88281,-12.24609 0,10.35156 4.96094,0 q 2.85156,0 4.29687,-1.30859 1.46485,-1.32813 1.46485,-3.88672 0,-2.5586 -1.46485,-3.84766 -1.44531,-1.30859 -4.29687,-1.30859 l -4.96094,0 z"
         id="path5530"
         inkscape:connector-curvature="0" />
      <path
         d="m 216.81026,288.60434 q -4.29687,0 -6.83593,3.20313 -2.51953,3.20312 -2.51953,8.73047 0,5.50781 2.51953,8.71093 2.53906,3.20313 6.83593,3.20313 4.29688,0 6.79688,-3.20313 2.51953,-3.20312 2.51953,-8.71093 0,-5.52735 -2.51953,-8.73047 -2.5,-3.20313 -6.79688,-3.20313 z m 0,-3.20312 q 6.13282,0 9.80469,4.12109 3.67188,4.10156 3.67188,11.01563 0,6.89453 -3.67188,11.01562 -3.67187,4.10156 -9.80469,4.10156 -6.15234,0 -9.84375,-4.10156 -3.67187,-4.10156 -3.67187,-11.01562 0,-6.91407 3.67187,-11.01563 3.69141,-4.12109 9.84375,-4.12109 z"
         id="path5532"
         inkscape:connector-curvature="0" />
    </g>
  </g>
  <g
     inkscape:groupmode="layer"
     id="layer2"
     inkscape:label="star"
     style="display:inline"
     transform="translate(8.6345112,17.220662)">
    <path
       transform="matrix(3.0756884,0,0,3.0756884,-275.8366,-111.9565)"
       style="color:#000000;clip-rule:nonzero;display:inline;overflow:visible;visibility:visible;opacity:1;isolation:auto;mix-blend-mode:normal;color-interpolation:sRGB;color-interpolation-filters:linearRGB;solid-color:#000000;solid-opacity:1;fill:#990000;fill-opacity:1;fill-rule:nonzero;stroke:none;stroke-width:2.5;stroke-linecap:butt;stroke-linejoin:miter;stroke-miterlimit:21;stroke-dasharray:none;stroke-dashoffset:0;stroke-opacity:1;color-rendering:auto;image-rendering:auto;shape-rendering:auto;text-rendering:auto;enable-background:accumulate"
       d="m 124.93872,45.432378 -1.37695,4.22657 -4.44531,0 3.59765,2.61718 -1.38281,4.25391 3.60742,-2.62891 3.61524,2.62891 -1.38477,-4.25391 3.5957,-2.61718 -4.43945,0 z"
       id="rect5534"
       inkscape:connector-curvature="0"
       sodipodi:nodetypes="ccccccccccc" />
  </g>
  <g
     inkscape:groupmode="layer"
     id="layer3"
     inkscape:label="star 2"
     transform="translate(8.6345112,17.220662)"
     style="display:none">
    <path
       style="color:#000000;clip-rule:nonzero;display:inline;overflow:visible;visibility:visible;opacity:1;isolation:auto;mix-blend-mode:normal;color-interpolation:sRGB;color-interpolation-filters:linearRGB;solid-color:#000000;solid-opacity:1;fill:#990000;fill-opacity:1;fill-rule:nonzero;stroke:none;stroke-width:2.5;stroke-linecap:butt;stroke-linejoin:miter;stroke-miterlimit:21;stroke-dasharray:none;stroke-dashoffset:0;stroke-opacity:1;color-rendering:auto;image-rendering:auto;shape-rendering:auto;text-rendering:auto;enable-background:accumulate"
       d="m 251.60762,85.637561 -3.51862,10.800448 -11.3594,0 9.19332,6.687861 -3.53359,10.8703 9.21829,-6.71783 9.23827,6.71783 -3.5386,-10.8703 9.18833,-6.687861 -11.34442,0 z"
       id="rect5534-3"
       inkscape:connector-curvature="0"
       sodipodi:nodetypes="ccccccccccc" />
  </g>
</svg>
