<?xml version="1.0" encoding="UTF-8" standalone="no"?>
<!-- Created with Inkscape (http://www.inkscape.org/) -->

<svg
   xmlns:dc="http://purl.org/dc/elements/1.1/"
   xmlns:cc="http://creativecommons.org/ns#"
   xmlns:rdf="http://www.w3.org/1999/02/22-rdf-syntax-ns#"
   xmlns:svg="http://www.w3.org/2000/svg"
   xmlns="http://www.w3.org/2000/svg"
   xmlns:sodipodi="http://sodipodi.sourceforge.net/DTD/sodipodi-0.dtd"
   xmlns:inkscape="http://www.inkscape.org/namespaces/inkscape"
   id="svg5787"
   version="1.1"
   inkscape:version="0.91 r13725"
   width="1600.2373"
   height="1183.5178"
   viewBox="0 0 1600.2373 1183.5178"
   sodipodi:docname="wolfieconstellation.svg"
   inkscape:export-filename="/Users/melissahoffman1/Desktop/sbu-astro/wolfieconstellation_dashed_lines.png"
   inkscape:export-xdpi="300"
   inkscape:export-ydpi="300"
   enable-background="new">
  <metadata
     id="metadata5793">
    <rdf:RDF>
      <cc:Work
         rdf:about="">
        <dc:format>image/svg+xml</dc:format>
        <dc:type
           rdf:resource="http://purl.org/dc/dcmitype/StillImage" />
        <dc:title></dc:title>
      </cc:Work>
    </rdf:RDF>
  </metadata>
  <defs
     id="defs5791">
    <inkscape:path-effect
       effect="spiro"
       id="path-effect6471"
       is_visible="true" />
    <inkscape:path-effect
       effect="spiro"
       id="path-effect6467"
       is_visible="true" />
    <inkscape:path-effect
       effect="spiro"
       id="path-effect6463"
       is_visible="true" />
    <inkscape:path-effect
       effect="spiro"
       id="path-effect6459"
       is_visible="true" />
    <inkscape:path-effect
       effect="spiro"
       id="path-effect6455"
       is_visible="true" />
    <inkscape:path-effect
       effect="spiro"
       id="path-effect6451"
       is_visible="true" />
    <inkscape:path-effect
       effect="spiro"
       id="path-effect6447"
       is_visible="true" />
    <inkscape:path-effect
       effect="spiro"
       id="path-effect6443"
       is_visible="true" />
    <inkscape:path-effect
       effect="spiro"
       id="path-effect6439"
       is_visible="true" />
    <inkscape:path-effect
       effect="spiro"
       id="path-effect6435"
       is_visible="true" />
    <inkscape:path-effect
       effect="spiro"
       id="path-effect6431"
       is_visible="true" />
  </defs>
  <sodipodi:namedview
     pagecolor="#ffffff"
     bordercolor="#666666"
     borderopacity="1"
     objecttolerance="10"
     gridtolerance="10"
     guidetolerance="10"
     inkscape:pageopacity="0"
     inkscape:pageshadow="2"
     inkscape:window-width="1196"
     inkscape:window-height="608"
     id="namedview5789"
     showgrid="false"
     fit-margin-top="0"
     fit-margin-left="0"
     fit-margin-right="0"
     fit-margin-bottom="0"
     inkscape:zoom="0.31677852"
     inkscape:cx="-42.794508"
     inkscape:cy="586.22007"
     inkscape:window-x="292"
     inkscape:window-y="123"
     inkscape:window-maximized="0"
     inkscape:current-layer="layer3" />
  <g
     inkscape:groupmode="layer"
     id="layer3"
     inkscape:label="wolfie"
     style="display:inline">
    <path
       transform="translate(-1866.1028,-160.16992)"
       style="fill:#d6d6d6;fill-opacity:1"
       d="m 3153.6027,1343.3445 c -33.2097,-3.5487 -69.2556,-18.9573 -101.6648,-43.4589 -17.9311,-13.556 -27.6062,-22.4559 -61.9285,-56.9668 -37.2755,-37.4804 -41.9684,-41.4475 -57.2906,-48.43 -40.4566,-18.4367 -108.7818,-22.9425 -180.616,-11.9109 -97.3326,14.9473 -192.5006,52.4591 -273.2429,107.7027 -6.4586,4.419 -12.0105,7.7669 -12.3375,7.4398 -0.6404,-0.6404 6.7369,-17.9563 37.5994,-88.2529 21.1429,-48.1577 37.9566,-85.8967 45.3881,-101.8749 4.9837,-10.7152 5.242,-11.6251 3.301,-11.6251 -0.7105,0 -25.2237,9.641 -54.4738,21.4243 -29.2501,11.7834 -54.0938,21.7137 -55.2082,22.0674 -1.5173,0.4816 -2.0261,0.1957 -2.0261,-1.1386 0,-0.9799 9.9499,-33.0002 22.111,-71.1564 12.3211,-38.6583 21.7297,-69.7521 21.25,-70.2271 -2.9761,-2.94639 -75.1694,-5.00661 -106.861,-3.04955 -97.8962,6.04541 -197.5021,30.45845 -301.5,73.89665 -63.5884,26.5598 -128.5373,60.5413 -181.3017,94.8575 -7.0409,4.5792 -13.2284,8.3258 -13.75,8.3258 -1.4497,0 -1.168,-3.5442 1.5625,-19.6623 8.6893,-51.2935 30.2595,-103.5787 62.1763,-150.713 5.1676,-7.63137 9.1465,-14.12433 8.8421,-14.42876 -2.0334,-2.0334 -38.3164,15.31746 -69.2792,33.12996 -10.0375,5.7744 -18.25,10.3532 -18.25,10.1752 0,-1.0533 7.6167,-17.7847 12.7847,-28.0838 29.6316,-59.0517 81.0859,-123.493 134.7153,-168.7173 1.65,-1.39141 2.6614,-2.86919 2.2476,-3.28397 -0.4139,-0.41478 -21.1139,0.17117 -46,1.30212 -24.8862,1.13095 -45.4012,1.91594 -45.5889,1.74443 -1.4048,-1.28345 3.8148,-7.30978 23.1578,-26.73703 126.8974,-127.45036 289.863,-218.27618 452.2957,-252.07849 9.1813,-1.91065 15.8878,-3.78275 15.8878,-4.43509 0,-0.62085 -2.8207,-2.83503 -6.2683,-4.92038 -13.7423,-8.31253 -58.1343,-42.16042 -58.9957,-44.9829 -0.5095,-1.66955 3.0315,-3.30854 20.8039,-9.62927 70.0261,-24.90468 168.9606,-42.51863 273.4601,-48.68589 10.45,-0.61672 19.5363,-1.29338 20.1917,-1.50368 1.6271,-0.52203 10.3756,-27.88763 15.258,-47.72789 6.2134,-25.24858 10.2439,-50.17226 13.2221,-81.76193 2.6747,-28.37164 1.1297,-90.91733 -2.8262,-114.40548 -0.5378,-3.19306 -0.4013,-3.75486 0.7483,-3.0798 12.3461,7.24988 44.4133,30.44325 59.4061,42.96688 60.4416,50.4875 102.1856,103.60063 126.6261,161.11303 2.5649,6.03547 2.6364,6.10098 7.3715,6.75 2.6298,0.36045 15.1811,0.67485 27.8919,0.69866 12.7107,0.0238 29.1854,0.46124 36.6104,0.97206 7.425,0.51082 24.3,1.40262 37.5,1.98177 51.3356,2.25239 82.4731,7.28286 107.8123,17.41779 l 10.8123,4.3246 1.3407,-2.11975 c 6.1916,-9.78926 18.1349,-53.47239 22.4947,-82.27523 1.9961,-13.18755 2.5538,-18.92139 8.5912,-88.33091 1.9368,-22.26751 3.8962,-40.861 4.354,-41.31887 0.4579,-0.45787 16.979,17.24247 36.7137,39.33409 19.7346,22.09162 39.4065,44.06012 43.7153,48.81888 9.0916,10.04109 26.7292,33.09209 34.1659,44.65228 20.1818,31.37225 33.62,64.83762 41.3839,103.05898 9.5949,47.23558 10.3831,95.85017 2.5282,155.94102 l -1.5686,12 4.4655,9.5 c 10.8194,23.01723 24.1872,65.26073 32.594,103 4.8044,21.5675 13.2573,66.86313 12.9124,69.1923 -0.2464,1.66434 -3.2715,3.49979 -13.8155,8.38257 -7.425,3.4384 -13.6302,6.88618 -13.7893,7.66175 -0.1591,0.77556 2.0226,4.3021 4.8483,7.83675 2.8257,3.53465 5.485,7.10163 5.9096,7.92663 0.4246,0.825 0.094,6.28854 -0.7357,12.1412 l -1.5077,10.6412 5.3072,9.3588 c 11.0787,19.53618 16.547,26.34592 40.4676,50.39504 19.7193,19.8252 26.2094,25.60315 45.5,40.50688 12.375,9.56082 27.6159,22.34987 33.8687,28.4201 l 11.3687,11.03678 -0.5249,15.99997 c -0.6069,18.4982 -3.0307,32.4207 -8.3155,47.7655 -7.9053,22.9536 -17.6828,39.0164 -33.3786,54.8356 -10.7902,10.8749 -18.4483,16.6806 -30.2447,22.9285 -6.3155,3.345 -7.2241,4.2927 -14.8761,15.5165 -6.925,10.1575 -16.0645,22.1827 -38.7264,50.9539 -2.8517,3.6206 -4.7881,7.7699 -7.0185,15.0398 -3.7116,12.0976 -12.721,30.6491 -20.9089,43.0545 -27.0656,41.0068 -69.6962,71.0658 -114.0852,80.4422 -9.4758,2.0015 -35.2093,3.3502 -44.6586,2.3405 z m 37,-85.3263 c 10.8556,-2.7454 23.0862,-9.0797 30.5192,-15.8062 6.6147,-5.9859 16.5116,-19.1623 15.2486,-20.3014 -0.4223,-0.3809 -6.8428,-1.6858 -14.2678,-2.8998 -25.1826,-4.1175 -48.6115,-11.1478 -59.5,-17.8542 -14.1119,-8.6916 -68.8966,-61.277 -91.8775,-88.1891 -5.4011,-6.325 -12.3328,-14.875 -15.4039,-19 -22.1531,-29.7561 -51.5852,-54.7546 -88.1446,-74.8668 -29.0626,-15.9881 -47.7382,-20.477 -90.8277,-21.83172 -13.5723,-0.42672 -19.5605,-0.97515 -20.2937,-1.85865 -2.5333,-3.05243 4.3907,-22.86877 12.6571,-36.22442 5.8918,-9.51916 22.0584,-25.86229 32.3794,-32.73293 25.8938,-17.23751 61.5398,-28.67724 103.0109,-33.05894 30.0914,-3.17935 45.8346,-0.75422 68.5,10.55193 19.5233,9.73879 35.9978,23.48365 51.798,43.21565 8.5056,10.62221 13.5244,18.27553 23.1524,35.30591 30.616,54.15507 59.3089,86.05997 87.5658,97.36827 8.2962,3.3201 21.3287,6.1846 39.4838,8.6785 16.8948,2.3207 44.7378,1.6136 55.9638,-1.4213 4.38,-1.1842 8.43,-2.6193 9,-3.1892 0.581,-0.5811 1.0316,-5.5169 1.0257,-11.2363 -0.01,-8.8503 -0.3399,-10.8616 -2.5,-15.2 -2.4725,-4.9659 -2.5338,-5.0078 -8.9895,-6.142 -8.9713,-1.5763 -17,-1.6594 -17,-0.176 0,0.65 1.8,5.5715 4,10.9366 4.6031,11.2253 4.9661,13.8814 1.8975,13.8814 -3.3915,0 -19.9221,-5.8658 -25.3766,-9.0048 -5.9247,-3.4096 -12.0065,-9.1274 -14.2786,-13.4242 -1.0836,-2.0492 -1.5963,-5.4001 -1.5409,-10.071 0.095,-8.0368 4.7594,-28.8179 6.9622,-31.0207 1.2145,-1.2145 5.3507,-1.4793 23.1078,-1.4793 12.7328,0 21.2379,-0.3672 20.6786,-0.8929 -0.5225,-0.4911 -16.7,-5.6666 -35.95,-11.50103 -33.8052,-10.24598 -35.1145,-10.73607 -38.3544,-14.35707 -6.2187,-6.95006 -12.1456,-15.08631 -12.1456,-16.67301 0,-2.03847 3.5732,-2.03887 24.123,-0.003 8.7328,0.86529 16.6651,1.41465 17.6274,1.22081 1.6566,-0.3337 -32.9708,-13.22488 -52.1603,-19.41835 -8.8707,-2.86308 -8.9439,-2.91426 -16.6753,-11.65976 -9.8894,-11.1865 -15.5066,-19.52409 -14.101,-20.92978 0.7169,-0.7169 5.7749,-0.0734 16.362,2.08164 23.92,4.86905 35.754,6.54018 33.7409,4.76472 -0.2292,-0.20211 -11.6667,-5.20958 -25.4167,-11.12771 -13.75,-5.91813 -28.6335,-12.43717 -33.0744,-14.48676 l -8.0743,-3.72653 -10.1822,-17.83923 c -6.3948,-11.20372 -9.8306,-18.19082 -9.2369,-18.78446 0.5936,-0.59364 10.918,1.34363 27.7565,5.20826 14.7462,3.38441 27.4863,6.1264 28.3113,6.0933 2.4959,-0.10013 -8.3995,-9.26912 -16.568,-13.94281 -17.3809,-9.94457 -38.1883,-14.26071 -50.9652,-10.57185 -10.3764,2.99579 -17.3676,7.40409 -26.9986,17.02393 -8.9445,8.93421 -14.3976,17.30021 -17.398,26.69135 -1.939,6.0691 -3.0461,6.26892 -9.1368,1.64915 -41.0299,-31.12114 -88.7599,-49.42004 -123.9334,-47.51404 -14.9442,0.80981 -66.5838,10.96498 -115.8275,22.77807 -16.7142,4.00986 -21.1724,4.63497 -21.1724,2.96901 0,-3.03777 23.9431,-27.34075 37.3674,-37.92912 16.0089,-12.62692 38.1799,-26.17382 60.1325,-36.74217 12.4713,-6.00391 12.8299,-6.2609 8.816,-6.31952 -2.3012,-0.0336 -12.0439,1.26382 -21.6505,2.88317 -101.4297,17.09771 -188.0011,64.24351 -238.3846,129.8216 -3.0703,3.99624 -5.3547,7.49362 -5.0763,7.77197 0.2783,0.27835 5.9649,-1.05026 12.6368,-2.95246 20.0731,-5.72294 37.3998,-8.90059 49.0649,-8.99826 6.1323,-0.0513 10.5404,0.32358 10.7329,0.91287 0.1796,0.55 -14.3114,20.51679 -32.2023,44.37063 -17.8909,23.85385 -32.3091,43.59044 -32.0404,43.85904 0.4841,0.4842 6.6015,-0.9478 65.6036,-15.35699 16.775,-4.09671 31.625,-7.31721 33,-7.15667 2.9997,0.35024 3.2093,0.12705 -73.0378,77.78396 -64.7897,65.9876 -74.894,76.4016 -74.5061,76.7895 0.1718,0.1717 6.1019,-2.7411 13.1781,-6.4729 61.8198,-32.6024 119.692,-51.8897 172.1904,-57.3866 14.9495,-1.5653 48.5868,-0.7025 61.1753,1.5691 15.1189,2.7282 30.4833,7.8454 49.6661,16.5415 29.2091,13.2413 44.6066,22.4308 62.8339,37.5001 19.0614,15.7589 34.0976,33.4601 50.0737,58.9488 8.3148,13.2656 18.7029,25.9454 28.2846,34.524 34.3775,30.7789 79.4321,44.9417 114.6417,36.0372 z m 64.8262,-60.3007 c 6.1774,-7.5878 13.6313,-20.0735 16.6687,-27.921 3.2027,-8.2747 5.1122,-19.3791 3.2179,-18.7135 -0.6018,0.2115 -3.9334,3.6187 -7.4035,7.5715 -7.9035,9.003 -19.4549,18.9014 -34.2996,29.3915 -6.3303,4.4733 -11.5097,8.5038 -11.5097,8.9565 0,1.2 18.1967,4.6336 25.6831,4.8462 3.7721,0.1071 4.5229,-0.2986 7.6431,-4.1312 z m -47.6325,-9.3867 c 7.0123,-7.4352 24.4972,-36.5057 22.9109,-38.092 -0.3451,-0.3452 -5.9099,1.9164 -12.3661,5.0257 -18.5759,8.9463 -38.0928,15.1696 -53.9885,17.2151 -3.299,0.4245 -5.25,1.1594 -5.25,1.9775 0,3.0082 20.4023,13.4763 30,15.3926 3.025,0.604 6.4,1.2754 7.5,1.492 5.77,1.1362 7.7966,0.5911 11.1937,-3.0109 z m -44.1937,-34.8073 c 8.213,-2.1876 23.0962,-9.4703 32.2934,-15.8019 13.4955,-9.2905 33.0458,-30.3149 30.5294,-32.8313 -0.4935,-0.4934 -4.1974,-2.0196 -8.2309,-3.3915 -9.2033,-3.1302 -18.2411,-8.15 -24.341,-13.5193 -2.5939,-2.2833 -5.1412,-3.8888 -5.6606,-3.5678 -0.5194,0.321 -1.4838,2.2649 -2.1431,4.3198 -2.2492,7.01 -11.9433,24.7188 -18.7014,34.1629 -3.7102,5.1848 -11.3583,14.246 -16.9958,20.1359 -5.6375,5.89 -10.25,11.2728 -10.25,11.9618 0,1.6802 15.2588,0.7266 23.5,-1.4686 z m 140.2988,-10.3281 c 11.6059,-11.6908 28.6771,-35.0853 26.8994,-36.863 -0.3377,-0.3377 -4.242,0.1171 -8.6764,1.0106 -4.4343,0.8935 -12.1033,1.6245 -17.0421,1.6245 l -8.9797,0 -0.013,10.75 c -0.012,9.4984 -1.8159,21.7858 -4.552,31 -1.3864,4.6687 2.7748,2.1371 12.3639,-7.5221 z m -50.4985,3.6966 c 9.9313,-6.5782 27.9127,-29.7468 28.1275,-36.2416 0.071,-2.1531 -0.1395,-2.1829 -15.4278,-2.1829 l -15.5,0 -0.6469,14 c -0.3558,7.7 -1.3053,16.8005 -2.11,20.2234 -1.9979,8.4985 -1.4995,8.8753 5.5572,4.2011 z m -126.2179,-23.2344 c 1.2866,-8.084 1.8283,-14.1794 1.3065,-14.7012 -0.4902,-0.4902 -7.8658,-2.004 -16.3901,-3.3641 -20.3579,-3.2481 -21.4988,-3.3519 -21.4988,-1.9565 0,1.8325 32.6853,35.5473 33.5831,34.6409 0.4408,-0.4451 1.7904,-7.0236 2.9993,-14.6191 z m -44.1109,-53.6493 c 1.3476,-13.4899 1.7043,-20.765 1.0502,-21.4191 -0.9567,-0.9567 -32.4307,0.895 -34.2422,2.0146 -0.4287,0.265 -0.7795,1.112 -0.7795,1.8824 0,3.0527 29.7285,40.1528 31.0865,38.7948 0.4643,-0.4643 1.7625,-10.037 2.885,-21.2727 z m 78.0285,-18.038 c 0,-0.5485 -3.1983,-5.3088 -7.1074,-10.5784 -3.909,-5.2696 -10.3747,-14.8334 -14.3681,-21.2528 -3.9935,-6.4193 -7.6577,-11.6716 -8.1427,-11.6716 -0.986,0 -4.0232,38.192 -3.1098,39.1054 0.5387,0.5386 27.0604,5.072 30.978,5.295 0.9625,0.055 1.75,-0.3491 1.75,-0.8976 z m -123.2283,-35.5136 c 0.1495,-10.9151 -0.075,-20.16852 -0.5,-20.56307 -0.4244,-0.39456 -10.4467,0.56649 -22.2717,2.13567 -11.825,1.56917 -21.65,2.8722 -21.8333,2.8956 -1.3693,0.175 1.614,2.6841 9.3333,7.85 8.1111,5.4281 26.0048,20.5092 30.927,26.0659 1.0599,1.1965 2.4099,2.0148 3,1.8185 0.7035,-0.234 1.1666,-7.1906 1.3447,-20.2026 z m -62.7781,-25.23917 c 0,-0.4125 -2.4279,-7.725 -5.3876,-16.25 -3.467,-9.98618 -5.9234,-15.60896 -6.9053,-15.80631 -0.8382,-0.16846 -10.9012,2.22117 -22.3623,5.3103 -29.916,8.06332 -34.4649,9.48239 -33.8071,10.54662 0.3227,0.52216 3.2861,0.94939 6.5854,0.94939 10.961,0 39.0029,7.24212 54.1942,13.99624 4.4294,1.96933 7.6933,2.50197 7.6827,1.25376 z m 146.0064,-2.62703 c 0,-1.51415 -12.4399,-19.62532 -19.9969,-29.11335 -5.9997,-7.53282 -16.7099,-17.80885 -17.836,-17.11291 -0.9608,0.59381 -2.516,45.22973 -1.6261,46.66969 0.3253,0.52633 9.0579,0.9336 20.018,0.9336 15.8427,0 19.441,-0.25488 19.441,-1.37703 z M 2108.871,954.89202 c 162.5062,-52.90936 329.8922,-72.17187 454.7318,-52.32981 8.8,1.39868 17.575,2.7731 19.5,3.05427 3.4324,0.50135 3.6197,0.34084 9.7065,-8.31887 25.0324,-35.61369 56.3739,-63.12792 88.7973,-77.95358 4.6627,-2.13207 8.4819,-4.16152 8.487,-4.50987 0,-0.34835 -0.7783,-0.87783 -1.7408,-1.17661 -0.9625,-0.29878 -6.25,-1.91311 -11.75,-3.58739 -26.8024,-8.15902 -60,-19.87112 -60,-21.16796 0,-1.81248 13.9437,-9.91816 35,-20.34601 49.8188,-24.67213 101.0332,-41.92683 160.7636,-54.16304 10.6818,-2.18825 18.6181,-4.2804 18.4258,-4.85737 -0.4958,-1.48727 -35.5997,-10.84281 -58.4204,-15.56963 -54.8548,-11.36197 -102.5265,-16.63052 -159.769,-17.65724 -113.497,-2.03572 -220.4595,17.72441 -319.7499,59.07022 -17.1206,7.1292 -37.9647,16.70716 -37.4592,17.21264 0.175,0.17503 6.8187,-0.99116 14.7636,-2.59152 26.4978,-5.33748 55.2336,-9.04406 94.9455,-12.24687 17.7327,-1.43016 106.5099,-1.75737 120.25,-0.4432 5.8836,0.56273 8.75,1.2461 8.75,2.08607 0,0.72967 -4.6787,2.61912 -11.25,4.54329 -82.3443,24.11122 -164.8499,62.04577 -255.25,117.35919 -38.2809,23.42306 -83.5425,54.51951 -119,81.75756 -22.1053,16.981 -24.3319,18.8299 -22.7318,18.87528 0.6975,0.0198 11.0475,-3.14802 23,-7.03955 z m 929.0572,-14.33386 c 15.029,-4.62454 27.6283,-8.71108 27.9984,-9.0812 1.024,-1.02401 -2.3578,-3.12878 -10.4198,-6.485 -13.0293,-5.42407 -26.4344,-7.98039 -41.9041,-7.99097 -10.4467,-0.007 -13.5,0.60877 -13.5,2.72325 0,2.39002 9.4673,29.24518 10.309,29.24273 0.1051,-3e-4 12.4875,-3.78427 27.5165,-8.40881 z m 53.6745,-110.47961 4,-0.77373 -6,-1.74722 c -11.7253,-3.41444 -24.1615,-10.34953 -31.3481,-17.48133 -12.0528,-11.96091 -16.3581,-23.06157 -16.5345,-42.63218 l -0.1174,-13.02343 -14.25,-16.3424 c -13.4407,-15.41421 -15.9514,-19.10578 -13,-19.11437 0.6875,-0.002 6.875,2.01878 13.75,4.49061 6.875,2.47184 29.132,10.34659 49.4601,17.49946 20.3281,7.15286 37.4761,13.56959 38.1067,14.25939 0.6306,0.6898 4.8601,10.59541 9.3988,22.01248 4.5387,11.41706 8.5838,20.96321 8.989,21.21367 1.0984,0.67881 60.4143,13.4925 60.7774,13.1294 0.3663,-0.36631 -9.8512,-10.28154 -28.8387,-27.98568 l -13.6068,-12.68703 -6.5097,-25.29278 -6.5098,-25.29279 -22.4081,-28.92154 c -12.3244,-15.90685 -25.2739,-32.64464 -28.7766,-37.19507 -3.5027,-4.55044 -6.5703,-8.07186 -6.8167,-7.82537 -0.2465,0.24648 4.7679,16.18052 11.1431,35.40898 6.3752,19.22846 11.5913,35.46238 11.5913,36.07538 0,0.61299 -0.9347,1.11453 -2.0771,1.11453 -1.756,0 -57.2349,-17.18598 -139.1622,-43.10896 -10.8566,-3.43518 -20.0332,-5.95185 -20.3925,-5.59258 -0.3593,0.35926 -0.1877,1.22658 0.3812,1.92737 0.5689,0.7008 13.4319,17.59616 28.5844,37.54527 25.0663,33.00124 27.6033,36.69741 28.141,41 1.3508,10.80872 3.8871,22.12439 6.7032,29.90709 10.2827,28.4176 34.9244,46.35672 67.6841,49.27379 11.684,1.04039 13.0192,1.05243 17.6379,0.15904 z M 2832.7846,634.21753 c -1.7478,-61.25947 -14.271,-123.56325 -35.8286,-178.25 -5.6998,-14.45921 -21.8198,-48 -23.0692,-48 -1.1844,0 -1.3211,0.72162 -3.2198,17 -7.2828,62.43815 -32.1748,148.84855 -56.132,194.85725 -4.129,7.92963 -7.3779,14.79086 -7.2198,15.24717 0.1582,0.45631 8.3843,-3.88051 18.2803,-9.63738 9.896,-5.75687 18.3121,-10.46704 18.7025,-10.46704 0.3903,0 4.8684,6.075 9.9513,13.5 5.3277,7.78281 9.9004,13.4834 10.7975,13.4608 0.8558,-0.0216 8.531,-6.31425 17.056,-13.98374 8.525,-7.66949 16.175,-13.93812 17,-13.93028 0.825,0.008 8.4495,9.45052 16.9434,20.98373 8.4939,11.53322 15.8744,20.96949 16.4012,20.96949 0.6,0 0.726,-8.12407 0.3372,-21.75 z"
       id="path6343"
       inkscape:connector-curvature="0"
       sodipodi:nodetypes="sssssscssssssssssssssssssssssssssssssssssssssssscssscssssscsscssssccsssscssssscsssssscssscssssssssssssccsssssssccscssscssscscsscscsssssssscssssssssscsssssssssssssssscsssssscsssssssscssssssssccsscccccscscsssscsscssccssssssssssscscsccscssscsscssccssssssscssssssssscssssssscsscscscsscssscsssssscsscccsscsssssssssssssssssssscscsss" />
    <g
       id="g6339"
       transform="translate(-1866.1028,-160.16992)">
      <path
         style="fill:#a8a8a8;fill-opacity:1"
         d="m 3149.179,1296.0846 c -26.2179,-5.7247 -52.8384,-19.9368 -81.728,-43.6327 -5.3746,-4.4084 -26.872,-25.1793 -47.772,-46.1575 -42.8657,-43.0261 -47.5766,-46.8884 -72,-59.0302 -20.7644,-10.3228 -35.4695,-14.916 -63,-19.6784 -11.5639,-2.0004 -16.3692,-2.2478 -43.5,-2.2395 -22.9607,0.01 -33.3427,0.4165 -42,1.6565 -6.325,0.906 -13.75,1.923 -16.5,2.2599 -8.6486,1.0595 -38.893,7.3639 -54.7604,11.4147 -46.4444,11.8567 -108.78,35.4451 -154.9619,58.639 -4.9668,2.4944 -9.38,4.1648 -9.807,3.7118 -0.4269,-0.4529 1.0328,-5.7735 3.244,-11.8235 6.3583,-17.3972 37.6335,-101.3653 40.2262,-108 1.2896,-3.3 4.0072,-10.5 6.0391,-16 2.0319,-5.5 5.4339,-14.5 7.56,-20 10.9023,-28.2029 18.96,-49.93955 18.96,-51.14695 0,-0.7442 -0.475,-1.3531 -1.0557,-1.3531 -3.5643,0 -66.965,30.83055 -96.3694,46.86255 -8.2088,4.4756 -15.2963,8.1375 -15.75,8.1375 -1.2688,0 -1.0224,-1.7372 1.7024,-12 3.495,-13.1636 6.9193,-23.4159 12.6392,-37.84175 4.6144,-11.6375 15.7113,-34.9062 19.9262,-41.7826 2.4344,-3.97153 1.4506,-4.90333 -6.627,-6.27715 -40.0682,-6.81467 -53.0606,-8.38452 -87.9657,-10.62873 -49.3599,-3.17358 -107.9901,-0.1339 -163,8.45073 -3.3,0.51499 -9.15,1.40971 -13,1.98827 -13.4265,2.01767 -42.6668,8.02767 -66.5,13.66828 -63.5205,15.0334 -136.4505,40.46025 -200.336,69.84645 -11.8717,5.4608 -46.0346,22.616 -47.114,23.6588 -0.5225,0.5048 -1.8081,0.9177 -2.857,0.9177 -2.452,0 -2.3507,-0.2472 6.9364,-16.931 19.1719,-34.4411 52.5269,-80.31695 96.0234,-132.06902 3.3994,-4.04464 4.214,-5.58079 3.0784,-5.80533 -1.5282,-0.30214 -12.5225,2.24774 -51.1162,11.85519 -20.4296,5.08568 -23.615,5.62772 -23.615,4.01836 0,-3.69134 38.2191,-43.99029 61.4069,-64.74861 20.8256,-18.64362 58.0525,-48.30832 74.6357,-59.47426 1.6545,-1.11401 2.1307,-1.99066 1.4574,-2.68304 -0.55,-0.56562 -8.65,-1.5053 -18,-2.08818 -53.7282,-3.34943 -53.5,-3.32827 -53.5,-4.9606 0,-1.05654 21.3435,-19.46185 38,-32.7688 88.9426,-71.0568 206.4418,-126.42561 330,-155.50493 17.2579,-4.06162 45.541,-9.86107 57.5,-11.79037 3.85,-0.6211 9.475,-1.52963 12.5,-2.01897 3.025,-0.48933 9.55,-1.40741 14.5,-2.04018 4.95,-0.63276 12.0112,-1.56444 15.6916,-2.07038 3.6803,-0.50595 8.6303,-0.92679 11,-0.93521 4.8992,-0.0174 7.8357,-1.36197 6.3,-2.88467 -0.5454,-0.54079 -22.1105,-14.19116 -47.9224,-30.33417 -25.812,-16.143 -47.0974,-29.8505 -47.3009,-30.46111 -0.5246,-1.57358 5.4603,-3.37565 28.9817,-8.72656 3.4375,-0.782 7.825,-1.70867 9.75,-2.05928 30.5514,-5.56439 50.827,-7.86887 88,-10.0019 37.5575,-2.15508 69.3115,-1.86076 115.7299,1.07267 l 10.2298,0.64649 1.092,-2.86808 c 3.4917,-9.17067 10.24,-42.08442 14.9914,-73.11808 0.5263,-3.4375 1.4056,-9.0625 1.954,-12.5 1.391,-8.71852 4.5198,-33.00037 6.926,-53.75 1.1161,-9.625 2.4801,-21.325 3.031,-26 0.5509,-4.675 1.2941,-12.20509 1.6515,-16.73353 0.3574,-4.52844 1.2006,-8.69065 1.8738,-9.24937 1.6528,-1.37169 12.0892,6.56751 24.8987,18.94104 22.5893,21.8205 43.195,50.86731 61.1202,86.15822 14.2982,28.15001 20.6688,43.75061 32.0086,78.38364 l 7.2034,22 3.3948,0.71324 c 1.8672,0.39228 8.3449,1.65998 14.3949,2.81711 32.3065,6.179 76.4536,19.30015 109.2941,32.48377 5.1117,2.05208 9.5357,3.48944 9.831,3.19412 1.8517,-1.85168 -10.936,-18.16916 -26.0529,-33.24425 -17.9636,-17.91386 -42.9893,-38.42159 -71.8222,-58.85575 -3.7125,-2.63109 -6.75,-5.25776 -6.75,-5.83705 0,-2.95293 83.8028,2.59083 117.5,7.77291 44.899,6.90473 63.5001,12.35905 93.6339,27.45579 28.1395,14.09757 52.8118,33.14676 69.8879,53.95941 6.1647,7.51373 9.0339,10.32634 8.9674,8.7907 -0.049,-1.13035 -3.3487,-10.68322 -5.8712,-16.99709 -8.7084,-21.79773 -19.8452,-39.32337 -34.8723,-54.87736 l -10.3543,-10.71739 3.0312,-6.0048 c 12.1751,-24.11874 23.6622,-61.4357 30.0603,-97.65336 3.1689,-17.93829 3.8257,-22.30034 4.5554,-30.25395 0.366,-3.98968 0.994,-7.45697 1.3954,-7.70509 1.9734,-1.21964 26.5738,27.90177 37.9792,44.95904 24.1034,36.04764 37.6587,75.18576 42.6006,123 0.8881,8.59246 1.4546,24.8382 1.4667,42.05986 0.021,29.25017 -1.7307,52.87712 -5.9775,80.64026 l -1.9427,12.70013 6.3884,12.29987 c 8.0375,15.47497 13.2596,29.46485 21.9488,58.79988 5.9115,19.95756 17.6028,69.91665 17.6028,75.21993 0,2.10761 -1.3767,3.08203 -10.25,7.25493 -29.1018,13.68587 -38.7498,18.46887 -38.7483,19.20946 0,0.44862 7.0297,9.59068 15.6194,20.31568 8.5897,10.725 16.6966,20.90253 18.0153,22.61673 l 2.3977,3.11674 -2.0024,13.88326 c -1.1013,7.6358 -3.1484,21.70626 -4.5492,31.2677 -1.4009,9.56144 -2.3374,17.594 -2.0813,17.85014 0.9803,0.98025 2.5877,-1.05792 9.2355,-11.7105 3.836,-6.14698 7.5249,-10.98824 8.3633,-10.97591 0.8334,0.0123 3.9317,4.25035 6.9719,9.53684 3.0096,5.23312 7.8472,12.67221 10.7504,16.53131 2.9031,3.85911 5.7307,7.86166 6.2835,8.89457 0.5528,1.03291 1.2467,7.41552 1.542,14.18357 0.7113,16.30312 1.4119,22.80555 2.457,22.80555 0.4735,0 3.1638,-3.81241 5.9783,-8.47202 2.8145,-4.65961 5.5504,-8.73969 6.0798,-9.06683 0.5293,-0.32714 8.1503,6.29776 16.9354,14.72202 l 15.9731,15.3168 -0.6469,15.3871 c -0.5121,12.181 -0.3835,15.29935 0.6172,14.96575 0.6952,-0.2317 3.692,-4.66265 6.6595,-9.84635 2.9674,-5.1838 5.9958,-9.761 6.7297,-10.1718 2.2741,-1.2726 16.3421,9.49 32.5745,24.92095 l 7.4054,7.0398 -0.6352,7.3523 c -1.7943,20.7708 -12.082,45.407 -24.6626,59.0602 -9.7326,10.5624 -20.8488,17.6766 -34.7162,22.2179 -3.1701,1.0381 -5.4318,2.4243 -5.7883,3.5475 -2.0352,6.4125 -24.9278,38.2892 -47.2908,65.8501 -12.0633,14.8673 -12.4769,15.537 -13.8956,22.5 -4.7735,23.4291 -17.4243,45.6575 -37.2925,65.5258 -19.0925,19.0925 -43.3362,32.8771 -66.3294,37.7139 -8.8271,1.8568 -33.849,1.7495 -42.7002,-0.1832 z m 43.5,-38.3292 c 10.8556,-2.7454 23.0862,-9.0797 30.5192,-15.8062 6.6147,-5.9859 16.5116,-19.1623 15.2486,-20.3014 -0.4223,-0.3809 -6.8428,-1.6858 -14.2678,-2.8998 -25.1826,-4.1175 -48.6115,-11.1478 -59.5,-17.8542 -14.1119,-8.6916 -68.8966,-61.277 -91.8775,-88.1891 -5.4011,-6.325 -12.3328,-14.875 -15.4039,-19 -22.1531,-29.756 -51.5852,-54.7546 -88.1446,-74.8668 -29.0626,-15.9881 -47.7382,-20.47705 -90.8277,-21.83175 -13.5724,-0.4267 -19.5605,-0.9752 -20.2938,-1.8587 -2.5333,-3.0524 4.3908,-22.8687 12.6572,-36.22439 5.8918,-9.51916 22.0584,-25.86229 32.3794,-32.73293 25.8938,-17.23751 61.5398,-28.67724 103.0109,-33.05894 30.0914,-3.17935 45.8346,-0.75422 68.5,10.55193 19.5233,9.73879 35.9978,23.48365 51.798,43.21565 8.5056,10.62221 13.5244,18.27558 23.1524,35.30588 30.616,54.15515 59.3089,86.06005 87.5658,97.36835 8.2962,3.3201 21.3287,6.1846 39.4838,8.6785 16.8948,2.3207 44.7378,1.6136 55.9638,-1.4213 4.38,-1.1841 8.43,-2.6193 9,-3.1892 0.581,-0.5811 1.0316,-5.5169 1.0257,-11.2363 -0.01,-8.8503 -0.3399,-10.8616 -2.5,-15.2 -2.4725,-4.9659 -2.5338,-5.0077 -8.9895,-6.142 -8.9713,-1.5763 -17,-1.6594 -17,-0.176 0,0.6501 1.8,5.5715 4,10.9366 4.6031,11.2254 4.9661,13.8814 1.8975,13.8814 -3.3915,0 -19.9221,-5.8658 -25.3766,-9.0048 -5.9247,-3.4096 -12.0065,-9.1274 -14.2786,-13.4242 -1.0836,-2.0491 -1.5963,-5.4001 -1.5409,-10.071 0.095,-8.0368 4.7594,-28.8179 6.9622,-31.0207 1.2145,-1.2145 5.3507,-1.4793 23.1078,-1.4793 12.7328,0 21.2379,-0.3672 20.6786,-0.8929 -0.5225,-0.4911 -16.7,-5.6666 -35.95,-11.50105 -33.8052,-10.246 -35.1145,-10.7361 -38.3544,-14.3571 -6.2187,-6.9501 -12.1456,-15.0863 -12.1456,-16.673 0,-2.0385 3.5732,-2.0389 24.123,0 8.7328,0.8653 16.6651,1.4146 17.6274,1.2208 1.6566,-0.3337 -32.9708,-13.22488 -52.1603,-19.41835 -8.8707,-2.86308 -8.9439,-2.91426 -16.6753,-11.65976 -9.8894,-11.1865 -15.5066,-19.52409 -14.101,-20.92978 0.7169,-0.7169 5.7749,-0.0734 16.362,2.08164 23.92,4.86905 35.754,6.54018 33.7409,4.76472 -0.2292,-0.20211 -11.6667,-5.20958 -25.4167,-11.12771 -13.75,-5.91813 -28.6335,-12.43717 -33.0744,-14.48676 l -8.0743,-3.72653 -10.1822,-17.83923 c -6.3948,-11.20372 -9.8306,-18.19082 -9.2369,-18.78446 0.5936,-0.59364 10.918,1.34363 27.7565,5.20826 14.7462,3.38441 27.4863,6.1264 28.3113,6.0933 2.4959,-0.10013 -8.3995,-9.26912 -16.568,-13.94281 -17.3809,-9.94457 -38.1883,-14.26071 -50.9652,-10.57185 -10.3764,2.99579 -17.3676,7.40409 -26.9986,17.02393 -8.9445,8.93421 -14.3976,17.30021 -17.398,26.69135 -1.939,6.0691 -3.0461,6.26892 -9.1368,1.64915 -41.0299,-31.12114 -88.7599,-49.42004 -123.9334,-47.51404 -14.9442,0.80981 -66.5838,10.96498 -115.8275,22.77807 -16.7143,4.00986 -21.1725,4.63497 -21.1725,2.96901 0,-3.03777 23.9431,-27.34075 37.3675,-37.92912 16.0089,-12.62692 38.1799,-26.17382 60.1325,-36.74217 12.4713,-6.00391 12.8299,-6.2609 8.816,-6.31952 -2.3012,-0.0336 -12.0439,1.26382 -21.6505,2.88317 -101.4297,17.09771 -188.0011,64.24351 -238.3847,129.8216 -3.0703,3.99624 -5.3546,7.49362 -5.0763,7.77197 0.2784,0.27835 5.9649,-1.05026 12.6369,-2.95246 20.073,-5.72294 37.3998,-8.90059 49.0648,-8.99826 6.1323,-0.0513 10.5404,0.32358 10.7329,0.91287 0.1797,0.55 -14.3113,20.51679 -32.2022,44.37067 -17.8909,23.8538 -32.3092,43.59045 -32.0405,43.85905 0.4842,0.4842 6.6015,-0.9478 65.6036,-15.35705 16.775,-4.0967 31.625,-7.3172 33,-7.1567 2.9998,0.3503 3.2093,0.1271 -73.0378,77.78405 -64.7896,65.9876 -74.894,76.4016 -74.506,76.7895 0.1717,0.1718 6.1018,-2.7411 13.178,-6.4729 61.8198,-32.6024 119.692,-51.8897 172.1904,-57.3866 14.9496,-1.5653 48.5869,-0.7025 61.1754,1.5691 15.1189,2.7282 30.4833,7.8454 49.6661,16.5415 29.2091,13.2414 44.6066,22.4308 62.8339,37.5001 19.0614,15.7589 34.0976,33.4601 50.0737,58.9488 8.3148,13.2656 18.7029,25.9454 28.2846,34.524 34.3775,30.7789 79.4321,44.9417 114.6417,36.0372 z m 64.8262,-60.3007 c 6.1774,-7.5878 13.6313,-20.0735 16.6687,-27.921 3.2027,-8.2746 5.1122,-19.3791 3.2179,-18.7135 -0.6018,0.2115 -3.9334,3.6187 -7.4035,7.5716 -7.9035,9.0029 -19.4549,18.9014 -34.2996,29.3914 -6.3303,4.4733 -11.5097,8.5038 -11.5097,8.9565 0,1.2 18.1967,4.6336 25.6831,4.8462 3.7721,0.1071 4.5229,-0.2986 7.6431,-4.1312 z m -47.6325,-9.3866 c 7.0123,-7.4353 24.4972,-36.5058 22.9109,-38.092 -0.3451,-0.3452 -5.9099,1.9163 -12.3661,5.0257 -18.5759,8.9462 -38.0928,15.1695 -53.9885,17.215 -3.299,0.4246 -5.25,1.1594 -5.25,1.9775 0,3.0082 20.4023,13.4764 30,15.3926 3.025,0.604 6.4,1.2754 7.5,1.492 5.77,1.1362 7.7966,0.5912 11.1937,-3.0108 z m -44.1937,-34.8073 c 8.213,-2.1877 23.0962,-9.4704 32.2934,-15.8019 13.4955,-9.2906 33.0458,-30.315 30.5294,-32.8314 -0.4935,-0.4934 -4.1974,-2.0196 -8.2309,-3.3915 -9.2033,-3.1302 -18.2411,-8.15 -24.341,-13.5193 -2.5939,-2.2833 -5.1412,-3.8888 -5.6606,-3.5678 -0.5194,0.3211 -1.4838,2.2649 -2.1431,4.3198 -2.2492,7.01 -11.9433,24.7188 -18.7014,34.1629 -3.7102,5.1848 -11.3583,14.246 -16.9958,20.1359 -5.6375,5.89 -10.25,11.2728 -10.25,11.9619 0,1.6801 15.2588,0.7266 23.5,-1.4686 z m 140.2988,-10.3282 c 11.6059,-11.6908 28.6771,-35.0852 26.8994,-36.863 -0.3377,-0.3377 -4.242,0.1171 -8.6764,1.0106 -4.4343,0.8935 -12.1033,1.6245 -17.0421,1.6245 l -8.9797,0 -0.013,10.75 c -0.012,9.4985 -1.8159,21.7858 -4.552,31 -1.3864,4.6687 2.7748,2.1371 12.3639,-7.5221 z m -50.4985,3.6966 c 9.9313,-6.5782 27.9127,-29.7468 28.1275,-36.2415 0.071,-2.1531 -0.1395,-2.183 -15.4278,-2.183 l -15.5,0 -0.6469,14 c -0.3558,7.7 -1.3053,16.8006 -2.11,20.2234 -1.9979,8.4985 -1.4995,8.8753 5.5572,4.2011 z m -126.2179,-23.2343 c 1.2866,-8.0841 1.8283,-14.1795 1.3065,-14.7012 -0.4902,-0.4903 -7.8658,-2.0041 -16.3901,-3.3642 -20.3579,-3.248 -21.4988,-3.3519 -21.4988,-1.9565 0,1.8325 32.6853,35.5473 33.5831,34.6409 0.4408,-0.445 1.7904,-7.0236 2.9993,-14.619 z m 22.8464,-7.8214 c 7.2092,-10.7959 11.0457,-20.0482 15.6313,-37.6969 1.6377,-6.3034 2.13,-9.8404 1.4787,-10.6251 -0.5369,-0.6469 -4.7028,-1.7579 -9.2575,-2.4689 -4.5547,-0.7109 -13.4563,-2.1187 -19.7813,-3.1283 -6.325,-1.0097 -13.6733,-2.1428 -16.3295,-2.5181 -2.6563,-0.3753 -5.042,-1.2361 -5.3017,-1.9128 -0.2597,-0.6768 -0.075,-12.6578 0.4096,-26.6246 0.6231,-17.9417 0.5649,-25.7318 -0.1983,-26.545 -1.1646,-1.2409 -0.62,-1.2974 -29.9371,3.1052 -9.2714,1.3923 -17.2589,2.2832 -17.75,1.9796 -0.4919,-0.304 -0.893,-14.01565 -0.893,-30.52435 0,-24.31141 -0.2562,-30.07066 -1.3566,-30.49291 -0.7461,-0.28632 -14.8086,2.96479 -31.25,7.22469 -16.4414,4.2599 -31.683,7.77082 -33.8703,7.80192 l -3.977,0.057 -7.0719,-20.99996 -7.0719,-21 -4.8126,0.17146 c -6.3429,0.22598 -21.6482,5.31432 -34.0897,11.3333 -15.3427,7.42257 -37.1461,22.64829 -35.2223,24.59643 0.7529,0.76242 10.1008,-0.76048 16.2223,-2.64285 1.65,-0.50737 8.85,-2.29915 16,-3.98173 7.15,-1.68258 17.8472,-4.24592 23.7716,-5.69632 7.0731,-1.73163 11.1099,-2.29882 11.7568,-1.6519 0.8216,0.82163 7.1363,24.93617 9.4407,36.05247 0.9844,4.7483 2.2666,5.3568 9.0766,4.3077 6.3204,-0.9737 16.7015,-2.6155 24.9543,-3.9466 23.6096,-3.8081 28.6999,-4.3366 29.488,-3.0614 0.4418,0.7149 1.0842,4.7242 1.4276,8.9096 2.0869,25.43655 4.2306,43.15615 5.3575,44.28295 0.5692,0.5692 4.1684,0.5063 9.3269,-0.1631 4.62,-0.5995 11.775,-1.5252 15.9,-2.0571 4.125,-0.532 10.7625,-1.2539 14.75,-1.6044 l 7.25,-0.6371 0,2.8414 c 0,1.5627 -0.4268,7.8152 -0.9484,13.8943 -0.5217,6.0791 -1.4636,17.0635 -2.0932,24.4098 -0.6296,7.3463 -0.7653,13.7332 -0.3015,14.1933 0.4637,0.46 6.9181,1.3416 14.3431,1.959 21.6177,1.7978 29.1502,2.741 30.1895,3.7803 0.6308,0.6309 0.6054,4.2684 -0.072,10.3419 -2.3445,21.0119 -2.4713,24.8687 -0.8174,24.8687 0.8441,0 3.3772,-2.7591 5.629,-6.1313 z m -66.9573,-45.828 c 1.3476,-13.4899 1.7043,-20.7649 1.0502,-21.4191 -0.9567,-0.9567 -32.4307,0.895 -34.2422,2.0146 -0.4287,0.265 -0.7795,1.1121 -0.7795,1.8824 0,3.0528 29.7285,40.1528 31.0865,38.7948 0.4643,-0.4643 1.7625,-10.037 2.885,-21.2727 z m 78.0285,-18.038 c 0,-0.5485 -3.1983,-5.3088 -7.1074,-10.5784 -3.909,-5.2696 -10.3747,-14.8334 -14.3681,-21.2527 -3.9935,-6.4194 -7.6577,-11.6717 -8.1427,-11.6717 -0.986,0 -4.0232,38.192 -3.1098,39.1054 0.5387,0.5387 27.0604,5.072 30.978,5.295 0.9625,0.055 1.75,-0.3491 1.75,-0.8976 z m -123.2283,-35.5136 c 0.1495,-10.9151 -0.075,-20.16855 -0.5,-20.56315 -0.4244,-0.3945 -10.4467,0.5665 -22.2717,2.1357 -11.825,1.5692 -21.65,2.87225 -21.8333,2.89565 -1.3693,0.175 1.614,2.6842 9.3333,7.85 8.1111,5.4281 26.0048,20.5092 30.927,26.0659 1.0599,1.1965 2.4099,2.0148 3,1.8185 0.7035,-0.234 1.1666,-7.1906 1.3447,-20.2026 z m -62.7781,-25.23925 c 0,-0.4125 -2.4279,-7.725 -5.3876,-16.25 -3.467,-9.9861 -5.9234,-15.60893 -6.9053,-15.80628 -0.8382,-0.16846 -10.9012,2.22118 -22.3623,5.31028 -29.916,8.0633 -34.4649,9.4824 -33.8071,10.5466 0.3227,0.5222 3.2861,0.9494 6.5854,0.9494 10.961,0 39.0029,7.2422 54.1942,13.9963 4.4294,1.9693 7.6933,2.5019 7.6827,1.2537 z m 146.0064,-2.627 c 0,-1.5141 -12.4399,-19.6253 -19.9969,-29.11335 -5.9997,-7.53282 -16.7099,-17.80885 -17.836,-17.11291 -0.9608,0.59381 -2.516,45.22976 -1.6261,46.66966 0.3253,0.5264 9.0579,0.9336 20.018,0.9336 15.8427,0 19.441,-0.2548 19.441,-1.377 z M 2110.9472,954.62917 c 162.5062,-52.90936 329.8922,-72.17187 454.7318,-52.32981 8.8,1.39868 17.575,2.7731 19.5,3.05427 3.4325,0.50135 3.6198,0.34084 9.7065,-8.31887 25.0324,-35.61369 56.374,-63.12792 88.7973,-77.95358 4.6628,-2.13207 8.4819,-4.16152 8.487,-4.50987 0.01,-0.34835 -0.7783,-0.87783 -1.7408,-1.17661 -0.9625,-0.29878 -6.25,-1.91311 -11.75,-3.58739 -26.8024,-8.15902 -60,-19.87112 -60,-21.16796 0,-1.81248 13.9437,-9.91816 35,-20.34601 49.8189,-24.67213 101.0333,-41.92683 160.7636,-54.16304 10.6818,-2.18825 18.6181,-4.2804 18.4258,-4.85737 -0.4957,-1.48727 -35.5996,-10.84281 -58.4204,-15.56963 -54.8548,-11.36197 -102.5265,-16.63052 -159.769,-17.65724 -113.4969,-2.03572 -220.4594,17.72441 -319.7499,59.07022 -17.1205,7.1292 -37.9647,16.70716 -37.4592,17.21264 0.175,0.17503 6.8187,-0.99116 14.7637,-2.59152 26.4978,-5.33748 55.2335,-9.04406 94.9454,-12.24687 17.7327,-1.43016 106.5099,-1.75737 120.25,-0.4432 5.8836,0.56273 8.75,1.2461 8.75,2.08607 0,0.72967 -4.6786,2.61912 -11.25,4.54329 -82.3442,24.11122 -164.8499,62.04577 -255.25,117.35919 -38.2809,23.42306 -83.5425,54.51951 -119,81.75756 -22.1052,16.981 -24.3319,18.82991 -22.7318,18.87531 0.6976,0.02 11.0476,-3.14805 23,-7.03958 z m 929.0573,-14.33386 c 15.029,-4.62454 27.6283,-8.71108 27.9984,-9.0812 1.024,-1.02401 -2.3578,-3.12878 -10.4198,-6.485 -13.0293,-5.42407 -26.4344,-7.98039 -41.9041,-7.99097 -10.4467,-0.007 -13.5,0.60877 -13.5,2.72325 0,2.39002 9.4673,29.24518 10.309,29.24273 0.1051,-3e-4 12.4875,-3.78427 27.5165,-8.40881 z m 53.6745,-110.47961 4,-0.77373 -6,-1.74722 c -11.7253,-3.41444 -24.1615,-10.34953 -31.3481,-17.48133 -12.0528,-11.96091 -16.3581,-23.06157 -16.5345,-42.63218 l -0.1174,-13.02343 -14.25,-16.3424 c -13.4407,-15.41421 -15.9514,-19.10578 -13,-19.11437 0.6875,-0.002 6.875,2.01878 13.75,4.49061 6.875,2.47184 29.132,10.34659 49.4601,17.49946 20.3281,7.15286 37.4761,13.56959 38.1067,14.25939 0.6306,0.6898 4.8601,10.59541 9.3988,22.01248 4.5387,11.41706 8.5838,20.96321 8.989,21.21367 1.0984,0.67881 60.4143,13.4925 60.7774,13.1294 0.3663,-0.36631 -9.8512,-10.28154 -28.8387,-27.98568 l -13.6068,-12.68703 -6.5097,-25.29278 -6.5098,-25.29279 -22.4081,-28.92154 c -12.3244,-15.90685 -25.2739,-32.64464 -28.7766,-37.19507 -3.5027,-4.55044 -6.5703,-8.07186 -6.8167,-7.82537 -0.2465,0.24648 4.7679,16.18052 11.1431,35.40898 6.3752,19.22846 11.5913,35.46238 11.5913,36.07538 0,0.61299 -0.9347,1.11453 -2.0771,1.11453 -1.756,0 -57.2349,-17.18598 -139.1622,-43.10896 -10.8566,-3.43518 -20.0332,-5.95185 -20.3925,-5.59258 -0.3593,0.35926 -0.1877,1.22658 0.3812,1.92737 0.5689,0.7008 13.4319,17.59616 28.5844,37.54527 25.0663,33.00124 27.6033,36.69741 28.141,41 1.3508,10.80872 3.8871,22.12439 6.7032,29.90709 10.2827,28.4176 34.9244,46.35672 67.6841,49.27379 11.684,1.04039 13.0192,1.05243 17.6379,0.15904 z m 11.3567,-22.03793 c 6.7482,-3.44264 6.7786,-3.60276 3.3386,-17.57088 -1.6893,-6.85933 -3.6618,-13.66093 -4.3834,-15.11467 -1.0335,-2.0823 -3.8582,-3.66646 -13.3119,-7.46559 -6.6,-2.65233 -12.9155,-4.84481 -14.0344,-4.87218 -2.5951,-0.0635 -4.8307,3.70733 -6.8739,11.59457 -2.1085,8.13946 -2.0076,12.16902 0.4707,18.79297 2.1619,5.77814 7.453,11.68393 13.23,14.76703 4.6408,2.47671 16.5949,2.40395 21.5643,-0.13125 z M 2834.8608,633.95468 c -1.7478,-61.25947 -14.271,-123.56325 -35.8285,-178.25 -5.6999,-14.45921 -21.8199,-48 -23.0693,-48 -1.1844,0 -1.3211,0.72162 -3.2198,17 -7.2828,62.43815 -32.1748,148.84855 -56.1319,194.85725 -4.1291,7.92963 -7.378,14.79086 -7.2198,15.24717 0.1581,0.45631 8.3842,-3.88051 18.2802,-9.63738 9.896,-5.75687 18.3121,-10.46704 18.7025,-10.46704 0.3904,0 4.8685,6.075 9.9513,13.5 5.3278,7.78281 9.9005,13.4834 10.7975,13.4608 0.8558,-0.0216 8.531,-6.31425 17.056,-13.98374 8.525,-7.66949 16.175,-13.93812 17,-13.93028 0.825,0.008 8.4495,9.45052 16.9434,20.98373 8.4939,11.53322 15.8744,20.96949 16.4012,20.96949 0.6,0 0.726,-8.12407 0.3372,-21.75 z"
         id="path6341"
         inkscape:connector-curvature="0"
         sodipodi:nodetypes="ssssscssscsssssssssssssssssscssscsssscssssssssssscsssscsscssscssscssscsssssscsscssscsscscsssscsscsccscccsssscscsccsscssccssssssscsssssscsssssssssccsssssscccscssscssscscsscscsssssssscsssssscsscscssscsssssssssscsssssscscscsssscscccssssccsscccccscscscssccscscccccscccscscsscccssssssscsscscssscscsscccsccsccsssscssscsscscsccscssscsscssccssssssscssssssssscssssssscsscscscsscssscsssssscsscccsscssssssssssssscssssssssssscssscscsss" />
    </g>
  </g>
  <g
     inkscape:groupmode="layer"
     id="layer2"
     inkscape:label="lines"
     style="display:inline;">
    <path
       transform="translate(-1866.1028,-160.16992)"
       style="color:#000000;clip-rule:nonzero;display:inline;overflow:visible;visibility:visible;opacity:0.95999995;isolation:auto;mix-blend-mode:normal;color-interpolation:sRGB;color-interpolation-filters:linearRGB;solid-color:#000000;solid-opacity:1;fill:none;fill-opacity:1;fill-rule:nonzero;stroke:#dc2e2e;stroke-width:2.5;stroke-linecap:butt;stroke-linejoin:miter;stroke-miterlimit:21;stroke-dasharray:20,20;stroke-dashoffset:2.24999994;stroke-opacity:1;color-rendering:auto;image-rendering:auto;shape-rendering:auto;text-rendering:auto;enable-background:accumulate"
       d="m 2609.1315,951.11431 -42.4114,239.95939 0,0"
       id="path6429"
       inkscape:path-effect="#path-effect6431"
       inkscape:original-d="m 2609.1315,951.11431 c -33.4827,216.52149 -42.4114,239.95939 -42.4114,239.95939 l 0,0"
       inkscape:connector-curvature="0"
       sodipodi:nodetypes="ccc" />
    <path
       transform="translate(-1866.1028,-160.16992)"
       style="color:#000000;clip-rule:nonzero;display:inline;overflow:visible;visibility:visible;opacity:0.95999995;isolation:auto;mix-blend-mode:normal;color-interpolation:sRGB;color-interpolation-filters:linearRGB;solid-color:#000000;solid-opacity:1;fill:none;fill-opacity:1;fill-rule:nonzero;stroke:#dc2e2e;stroke-width:2.5;stroke-linecap:butt;stroke-linejoin:miter;stroke-miterlimit:21;stroke-dasharray:20,20;stroke-dashoffset:2.24999994;stroke-opacity:1;color-rendering:auto;image-rendering:auto;shape-rendering:auto;text-rendering:auto;enable-background:accumulate"
       d="m 2586.8097,1177.6806 276.5019,-100.2115 301.6328,214.0527 0,0 0,-2.2322 252.2364,-270.0938"
       id="path6433"
       inkscape:path-effect="#path-effect6435"
       inkscape:original-d="m 2586.8097,1177.6806 276.5019,-100.2115 301.6328,214.0527 0,0 0,-2.2322 c 254.4685,-270.0938 252.2364,-270.0938 252.2364,-270.0938"
       inkscape:connector-curvature="0"
       sodipodi:nodetypes="cccccc" />
    <path
       transform="translate(-1866.1028,-160.16992)"
       style="color:#000000;clip-rule:nonzero;display:inline;overflow:visible;visibility:visible;opacity:0.95999995;isolation:auto;mix-blend-mode:normal;color-interpolation:sRGB;color-interpolation-filters:linearRGB;solid-color:#000000;solid-opacity:1;fill:none;fill-opacity:1;fill-rule:nonzero;stroke:#dc2e2e;stroke-width:2.5;stroke-linecap:butt;stroke-linejoin:miter;stroke-miterlimit:21;stroke-dasharray:20,20;stroke-dashoffset:2.24999994;stroke-opacity:1;color-rendering:auto;image-rendering:auto;shape-rendering:auto;text-rendering:auto;enable-background:accumulate"
       d="m 3263.1603,775.88816 151.7883,247.77204"
       id="path6437"
       inkscape:path-effect="#path-effect6439"
       inkscape:original-d="m 3263.1603,775.88816 c 165.1814,388.39944 151.7883,247.77204 151.7883,247.77204"
       inkscape:connector-curvature="0"
       sodipodi:nodetypes="cc" />
    <path
       transform="translate(-1866.1028,-160.16992)"
       style="color:#000000;clip-rule:nonzero;display:inline;overflow:visible;visibility:visible;opacity:0.95999995;isolation:auto;mix-blend-mode:normal;color-interpolation:sRGB;color-interpolation-filters:linearRGB;solid-color:#000000;solid-opacity:1;fill:none;fill-opacity:1;fill-rule:nonzero;stroke:#dc2e2e;stroke-width:2.5;stroke-linecap:butt;stroke-linejoin:miter;stroke-miterlimit:21;stroke-dasharray:20,20;stroke-dashoffset:2.24999994;stroke-opacity:1;color-rendering:auto;image-rendering:auto;shape-rendering:auto;text-rendering:auto;enable-background:accumulate"
       d="m 3160.48,233.46834 101.5642,536.83937"
       id="path6441"
       inkscape:path-effect="#path-effect6443"
       inkscape:original-d="m 3160.48,233.46834 101.5642,536.83937"
       inkscape:connector-curvature="0"
       sodipodi:nodetypes="cc" />
    <path
       transform="translate(-1866.1028,-160.16992)"
       style="color:#000000;clip-rule:nonzero;display:inline;overflow:visible;visibility:visible;opacity:0.95999995;isolation:auto;mix-blend-mode:normal;color-interpolation:sRGB;color-interpolation-filters:linearRGB;solid-color:#000000;solid-opacity:1;fill:none;fill-opacity:1;fill-rule:nonzero;stroke:#dc2e2e;stroke-width:2.5;stroke-linecap:butt;stroke-linejoin:miter;stroke-miterlimit:21;stroke-dasharray:20,20;stroke-dashoffset:2.24999994;stroke-opacity:1;color-rendering:auto;image-rendering:auto;shape-rendering:auto;text-rendering:auto;enable-background:accumulate"
       d="M 3144.8548,231.23616 3013.1561,412.04277"
       id="path6445"
       inkscape:path-effect="#path-effect6447"
       inkscape:original-d="M 3144.8548,231.23616 C 3015.3883,412.04277 3013.1561,412.04277 3013.1561,412.04277"
       inkscape:connector-curvature="0" />
    <path
       transform="translate(-1866.1028,-160.16992)"
       style="color:#000000;clip-rule:nonzero;display:inline;overflow:visible;visibility:visible;opacity:0.95999995;isolation:auto;mix-blend-mode:normal;color-interpolation:sRGB;color-interpolation-filters:linearRGB;solid-color:#000000;solid-opacity:1;fill:none;fill-opacity:1;fill-rule:nonzero;stroke:#dc2e2e;stroke-width:2.5;stroke-linecap:butt;stroke-linejoin:miter;stroke-miterlimit:21;stroke-dasharray:20,20;stroke-dashoffset:2.24999994;stroke-opacity:1;color-rendering:auto;image-rendering:auto;shape-rendering:auto;text-rendering:auto;enable-background:accumulate"
       d="m 2899.3149,400.88187 113.8412,6.69654 0,0 0,0"
       id="path6449"
       inkscape:path-effect="#path-effect6451"
       inkscape:original-d="m 2899.3149,400.88187 c 113.8412,6.69654 113.8412,6.69654 113.8412,6.69654 l 0,0 0,0"
       inkscape:connector-curvature="0" />
    <path
       transform="translate(-1866.1028,-160.16992)"
       style="color:#000000;clip-rule:nonzero;display:inline;overflow:visible;visibility:visible;opacity:0.95999995;isolation:auto;mix-blend-mode:normal;color-interpolation:sRGB;color-interpolation-filters:linearRGB;solid-color:#000000;solid-opacity:1;fill:none;fill-opacity:1;fill-rule:nonzero;stroke:#dc2e2e;stroke-width:2.5;stroke-linecap:butt;stroke-linejoin:miter;stroke-miterlimit:21;stroke-dasharray:20,20;stroke-dashoffset:2.24999994;stroke-opacity:1;color-rendering:auto;image-rendering:auto;shape-rendering:auto;text-rendering:auto;enable-background:accumulate"
       d="m 2870.2966,385.2566 -165.1814,-183.03878 0,334.82704"
       id="path6453"
       inkscape:path-effect="#path-effect6455"
       inkscape:original-d="M 2870.2966,385.2566 C 2705.1152,202.21782 2705.1152,202.21782 2705.1152,202.21782 c 2.2322,334.82704 0,334.82704 0,334.82704"
       inkscape:connector-curvature="0" />
    <path
       transform="translate(-1866.1028,-160.16992)"
       style="color:#000000;clip-rule:nonzero;display:inline;overflow:visible;visibility:visible;opacity:0.95999995;isolation:auto;mix-blend-mode:normal;color-interpolation:sRGB;color-interpolation-filters:linearRGB;solid-color:#000000;solid-opacity:1;fill:none;fill-opacity:1;fill-rule:nonzero;stroke:#dc2e2e;stroke-width:2.5;stroke-linecap:butt;stroke-linejoin:miter;stroke-miterlimit:21;stroke-dasharray:20,20;stroke-dashoffset:2.24999994;stroke-opacity:1;color-rendering:auto;image-rendering:auto;shape-rendering:auto;text-rendering:auto;enable-background:accumulate"
       d="m 2443.9501,501.32998 254.4686,33.4827"
       id="path6457"
       inkscape:path-effect="#path-effect6459"
       inkscape:original-d="m 2443.9501,501.32998 c 254.4686,33.4827 254.4686,33.4827 254.4686,33.4827"
       inkscape:connector-curvature="0" />
    <path
       transform="translate(-1866.1028,-160.16992)"
       style="color:#000000;clip-rule:nonzero;display:inline;overflow:visible;visibility:visible;opacity:0.95999995;isolation:auto;mix-blend-mode:normal;color-interpolation:sRGB;color-interpolation-filters:linearRGB;solid-color:#000000;solid-opacity:1;fill:none;fill-opacity:1;fill-rule:nonzero;stroke:#dc2e2e;stroke-width:2.5;stroke-linecap:butt;stroke-linejoin:miter;stroke-miterlimit:21;stroke-dasharray:20,20;stroke-dashoffset:2.24999994;stroke-opacity:1;color-rendering:auto;image-rendering:auto;shape-rendering:auto;text-rendering:auto;enable-background:accumulate"
       d="m 2122.5162,802.67432 325.8983,-294.6478"
       id="path6461"
       inkscape:path-effect="#path-effect6463"
       inkscape:original-d="m 2122.5162,802.67432 c 325.8983,-296.87998 325.8983,-294.6478 325.8983,-294.6478"
       inkscape:connector-curvature="0" />
    <path
       transform="translate(-1866.1028,-160.16992)"
       style="color:#000000;clip-rule:nonzero;display:inline;overflow:visible;visibility:visible;opacity:0.95999995;isolation:auto;mix-blend-mode:normal;color-interpolation:sRGB;color-interpolation-filters:linearRGB;solid-color:#000000;solid-opacity:1;fill:none;fill-opacity:1;fill-rule:nonzero;stroke:#dc2e2e;stroke-width:2.5;stroke-linecap:butt;stroke-linejoin:miter;stroke-miterlimit:21;stroke-dasharray:20,20;stroke-dashoffset:2.24999994;stroke-opacity:1;color-rendering:auto;image-rendering:auto;shape-rendering:auto;text-rendering:auto;enable-background:accumulate"
       d="m 2140.3736,820.53176 -125.0021,223.21804 584.8313,-89.28722"
       id="path6465"
       inkscape:path-effect="#path-effect6467"
       inkscape:original-d="m 2140.3736,820.53176 c -120.5377,220.98584 -125.0021,223.21804 -125.0021,223.21804 584.8313,-89.28722 584.8313,-89.28722 584.8313,-89.28722"
       inkscape:connector-curvature="0" />
  </g>
  <g
     inkscape:groupmode="layer"
     id="layer1"
     inkscape:label="stars"
     style="display:inline">
    <path
       sodipodi:type="star"
       style="color:#000000;clip-rule:nonzero;display:inline;overflow:visible;visibility:visible;opacity:0.95999995;isolation:auto;mix-blend-mode:normal;color-interpolation:sRGB;color-interpolation-filters:linearRGB;solid-color:#000000;solid-opacity:1;fill:#aa0000;fill-opacity:1;fill-rule:nonzero;stroke:none;stroke-width:2.5;stroke-linecap:butt;stroke-linejoin:miter;stroke-miterlimit:21;stroke-dasharray:none;stroke-dashoffset:0;stroke-opacity:1;color-rendering:auto;image-rendering:auto;shape-rendering:auto;text-rendering:auto;enable-background:accumulate"
       id="path6351-6-6"
       sodipodi:sides="5"
       sodipodi:cx="3089.0459"
       sodipodi:cy="784.01544"
       sodipodi:r1="58.939377"
       sodipodi:r2="25.043049"
       sodipodi:arg1="1.1071487"
       sodipodi:arg2="1.7354672"
       inkscape:flatsided="false"
       inkscape:rounded="0"
       inkscape:randomized="0"
       d="m 3115.4044,836.73242 -30.4638,-28.0127 -37.8863,16.65458 17.2278,-37.62914 -27.5469,-30.88552 41.1111,4.75662 20.8614,-35.74288 8.1802,40.56889 40.44,8.7952 -36.0554,20.31634 z"
       inkscape:transform-center-x="0.99499784"
       inkscape:transform-center-y="-4.6734183"
       transform="matrix(0.97604261,-0.21757947,0.21757947,0.97604261,-1962.683,530.72598)" />
    <path
       transform="translate(-1866.1028,-160.16992)"
       sodipodi:type="star"
       style="color:#000000;clip-rule:nonzero;display:inline;overflow:visible;visibility:visible;opacity:0.95999995;isolation:auto;mix-blend-mode:normal;color-interpolation:sRGB;color-interpolation-filters:linearRGB;solid-color:#000000;solid-opacity:1;fill:#aa0000;fill-opacity:1;fill-rule:nonzero;stroke:none;stroke-width:2.5;stroke-linecap:butt;stroke-linejoin:miter;stroke-miterlimit:21;stroke-dasharray:none;stroke-dashoffset:0;stroke-opacity:1;color-rendering:auto;image-rendering:auto;shape-rendering:auto;text-rendering:auto;enable-background:accumulate"
       id="path6351"
       sodipodi:sides="5"
       sodipodi:cx="2693.3584"
       sodipodi:cy="207.46683"
       sodipodi:r1="47.945499"
       sodipodi:r2="20.371803"
       sodipodi:arg1="1.1071487"
       sodipodi:arg2="1.7354672"
       inkscape:flatsided="false"
       inkscape:rounded="0"
       inkscape:randomized="0"
       d="m 2714.8003,250.35059 -24.7814,-22.78754 -30.8195,13.54803 14.0144,-30.61023 -22.4087,-25.12449 33.4428,3.86937 16.9701,-29.07581 6.6544,33.00163 32.8968,7.15465 -29.3301,16.52676 z"
       inkscape:transform-center-x="-2.4286991"
       inkscape:transform-center-y="-2.2065861" />
    <path
       transform="translate(-1866.1028,-160.16992)"
       sodipodi:type="star"
       style="color:#000000;clip-rule:nonzero;display:inline;overflow:visible;visibility:visible;opacity:0.95999995;isolation:auto;mix-blend-mode:normal;color-interpolation:sRGB;color-interpolation-filters:linearRGB;solid-color:#000000;solid-opacity:1;fill:#aa0000;fill-opacity:1;fill-rule:nonzero;stroke:none;stroke-width:2.5;stroke-linecap:butt;stroke-linejoin:miter;stroke-miterlimit:21;stroke-dasharray:none;stroke-dashoffset:0;stroke-opacity:1;color-rendering:auto;image-rendering:auto;shape-rendering:auto;text-rendering:auto;enable-background:accumulate"
       id="path6351-6"
       sodipodi:sides="5"
       sodipodi:cx="2887.8113"
       sodipodi:cy="399.70319"
       sodipodi:r1="43.834362"
       sodipodi:r2="18.625002"
       sodipodi:arg1="1.1071487"
       sodipodi:arg2="1.7354672"
       inkscape:flatsided="false"
       inkscape:rounded="0"
       inkscape:randomized="0"
       d="m 2907.4146,438.90983 -22.6565,-20.83359 -28.1768,12.38633 12.8127,-27.98552 -20.4872,-22.97016 30.5751,3.53759 15.515,-26.58268 6.0838,30.17188 30.0761,6.54116 -26.8152,15.10965 z"
       inkscape:transform-center-x="-2.2205397"
       inkscape:transform-center-y="-2.0173673" />
    <path
       sodipodi:type="star"
       style="color:#000000;clip-rule:nonzero;display:inline;overflow:visible;visibility:visible;opacity:0.95999995;isolation:auto;mix-blend-mode:normal;color-interpolation:sRGB;color-interpolation-filters:linearRGB;solid-color:#000000;solid-opacity:1;fill:#aa0000;fill-opacity:1;fill-rule:nonzero;stroke:none;stroke-width:2.5;stroke-linecap:butt;stroke-linejoin:miter;stroke-miterlimit:21;stroke-dasharray:none;stroke-dashoffset:0;stroke-opacity:1;color-rendering:auto;image-rendering:auto;shape-rendering:auto;text-rendering:auto;enable-background:accumulate"
       id="path6368"
       sodipodi:sides="5"
       sodipodi:cx="3159.9365"
       sodipodi:cy="224.13136"
       sodipodi:r1="62.281429"
       sodipodi:r2="26.46307"
       sodipodi:arg1="-0.15264933"
       sodipodi:arg2="0.4756692"
       inkscape:flatsided="false"
       inkscape:rounded="0"
       inkscape:randomized="0"
       d="m 3221.4937,214.66102 -38.0319,21.58867 4.5038,43.49956 -32.2846,-29.49922 -39.9788,17.72541 18.079,-39.82018 -29.212,-32.54465 43.4579,4.88899 21.9248,-37.83911 8.7796,42.84174 z"
       inkscape:transform-center-x="0.87107828"
       inkscape:transform-center-y="-5.1128351"
       transform="matrix(0.97869604,-0.20531453,0.20531453,0.97869604,-1844.8011,493.38583)" />
    <path
       transform="translate(-1866.1028,-160.16992)"
       sodipodi:type="star"
       style="color:#000000;clip-rule:nonzero;display:inline;overflow:visible;visibility:visible;opacity:0.95999995;isolation:auto;mix-blend-mode:normal;color-interpolation:sRGB;color-interpolation-filters:linearRGB;solid-color:#000000;solid-opacity:1;fill:#aa0000;fill-opacity:1;fill-rule:nonzero;stroke:none;stroke-width:2.5;stroke-linecap:butt;stroke-linejoin:miter;stroke-miterlimit:21;stroke-dasharray:none;stroke-dashoffset:0;stroke-opacity:1;color-rendering:auto;image-rendering:auto;shape-rendering:auto;text-rendering:auto;enable-background:accumulate"
       id="path6351-6-0"
       sodipodi:sides="5"
       sodipodi:cx="3410.2583"
       sodipodi:cy="1018.5004"
       sodipodi:r1="43.834362"
       sodipodi:r2="18.625002"
       sodipodi:arg1="1.1071487"
       sodipodi:arg2="1.7354672"
       inkscape:flatsided="false"
       inkscape:rounded="0"
       inkscape:randomized="0"
       d="m 3429.8616,1057.7071 -22.6565,-20.8336 -28.1768,12.3863 12.8127,-27.9855 -20.4872,-22.97017 30.5751,3.53757 15.5151,-26.58266 6.0838,30.17186 30.076,6.5412 -26.8152,15.1096 z"
       inkscape:transform-center-x="-2.2205397"
       inkscape:transform-center-y="-2.0173673" />
    <path
       sodipodi:type="star"
       style="color:#000000;clip-rule:nonzero;display:inline;overflow:visible;visibility:visible;opacity:0.95999995;isolation:auto;mix-blend-mode:normal;color-interpolation:sRGB;color-interpolation-filters:linearRGB;solid-color:#000000;solid-opacity:1;fill:#aa0000;fill-opacity:1;fill-rule:nonzero;stroke:none;stroke-width:2.5;stroke-linecap:butt;stroke-linejoin:miter;stroke-miterlimit:21;stroke-dasharray:none;stroke-dashoffset:0;stroke-opacity:1;color-rendering:auto;image-rendering:auto;shape-rendering:auto;text-rendering:auto;enable-background:accumulate"
       id="path6351-6-60"
       sodipodi:sides="5"
       sodipodi:cx="2570.5549"
       sodipodi:cy="1182.653"
       sodipodi:r1="43.834362"
       sodipodi:r2="18.625002"
       sodipodi:arg1="1.1071487"
       sodipodi:arg2="1.7354672"
       inkscape:flatsided="false"
       inkscape:rounded="0"
       inkscape:randomized="0"
       d="m 2590.1583,1221.8596 -22.6565,-20.8336 -28.1768,12.3863 12.8126,-27.9855 -20.4872,-22.9701 30.5752,3.5375 15.515,-26.5826 6.0838,30.1718 30.076,6.5412 -26.8151,15.1097 z"
       inkscape:transform-center-x="-1.2440214"
       inkscape:transform-center-y="2.9849343"
       transform="matrix(0.63332351,-0.77388716,0.77388716,0.63332351,-1838.7807,2262.8005)" />
    <path
       transform="translate(-1866.1028,-160.16992)"
       sodipodi:type="star"
       style="color:#000000;clip-rule:nonzero;display:inline;overflow:visible;visibility:visible;opacity:0.95999995;isolation:auto;mix-blend-mode:normal;color-interpolation:sRGB;color-interpolation-filters:linearRGB;solid-color:#000000;solid-opacity:1;fill:#aa0000;fill-opacity:1;fill-rule:nonzero;stroke:none;stroke-width:2.5;stroke-linecap:butt;stroke-linejoin:miter;stroke-miterlimit:21;stroke-dasharray:none;stroke-dashoffset:0;stroke-opacity:1;color-rendering:auto;image-rendering:auto;shape-rendering:auto;text-rendering:auto;enable-background:accumulate"
       id="path6351-6-9"
       sodipodi:sides="5"
       sodipodi:cx="2608.4363"
       sodipodi:cy="952.20801"
       sodipodi:r1="43.834362"
       sodipodi:r2="18.625002"
       sodipodi:arg1="1.1071487"
       sodipodi:arg2="1.7354672"
       inkscape:flatsided="false"
       inkscape:rounded="0"
       inkscape:randomized="0"
       d="m 2628.0396,991.41465 -22.6565,-20.83359 -28.1768,12.38634 12.8127,-27.98553 -20.4872,-22.97016 30.5751,3.53759 15.515,-26.58268 6.0838,30.17188 30.0761,6.54116 -26.8152,15.10965 z"
       inkscape:transform-center-x="-2.2205397"
       inkscape:transform-center-y="-2.0173673" />
    <path
       transform="translate(-1866.1028,-160.16992)"
       sodipodi:type="star"
       style="color:#000000;clip-rule:nonzero;display:inline;overflow:visible;visibility:visible;opacity:0.95999995;isolation:auto;mix-blend-mode:normal;color-interpolation:sRGB;color-interpolation-filters:linearRGB;solid-color:#000000;solid-opacity:1;fill:#aa0000;fill-opacity:1;fill-rule:nonzero;stroke:none;stroke-width:2.5;stroke-linecap:butt;stroke-linejoin:miter;stroke-miterlimit:21;stroke-dasharray:none;stroke-dashoffset:0;stroke-opacity:1;color-rendering:auto;image-rendering:auto;shape-rendering:auto;text-rendering:auto;enable-background:accumulate"
       id="path6351-6-2"
       sodipodi:sides="5"
       sodipodi:cx="2005.4913"
       sodipodi:cy="1046.9114"
       sodipodi:r1="43.834362"
       sodipodi:r2="18.625002"
       sodipodi:arg1="1.1071487"
       sodipodi:arg2="1.7354672"
       inkscape:flatsided="false"
       inkscape:rounded="0"
       inkscape:randomized="0"
       d="m 2025.0947,1086.118 -22.6565,-20.8336 -28.1768,12.3864 12.8126,-27.9856 -20.4872,-22.9701 30.5752,3.5376 15.515,-26.5827 6.0838,30.1719 30.076,6.5411 -26.8151,15.1097 z"
       inkscape:transform-center-x="-2.2205397"
       inkscape:transform-center-y="-2.0173673" />
    <path
       sodipodi:type="star"
       style="color:#000000;clip-rule:nonzero;display:inline;overflow:visible;visibility:visible;opacity:0.95999995;isolation:auto;mix-blend-mode:normal;color-interpolation:sRGB;color-interpolation-filters:linearRGB;solid-color:#000000;solid-opacity:1;fill:#aa0000;fill-opacity:1;fill-rule:nonzero;stroke:none;stroke-width:2.5;stroke-linecap:butt;stroke-linejoin:miter;stroke-miterlimit:21;stroke-dasharray:none;stroke-dashoffset:0;stroke-opacity:1;color-rendering:auto;image-rendering:auto;shape-rendering:auto;text-rendering:auto;enable-background:accumulate"
       id="path6351-6-00"
       sodipodi:sides="5"
       sodipodi:cx="2138.0762"
       sodipodi:cy="800.68256"
       sodipodi:r1="43.834362"
       sodipodi:r2="18.625002"
       sodipodi:arg1="1.1071487"
       sodipodi:arg2="1.7354672"
       inkscape:flatsided="false"
       inkscape:rounded="0"
       inkscape:randomized="0"
       d="m 2157.6795,839.8892 -22.6565,-20.83359 -28.1768,12.38633 12.8127,-27.98552 -20.4872,-22.97016 30.5751,3.53759 15.515,-26.58268 6.0838,30.17188 30.0761,6.54116 -26.8152,15.10965 z"
       inkscape:transform-center-x="4.1239089"
       inkscape:transform-center-y="0.065014394"
       transform="matrix(0.88531359,-0.46499446,0.46499446,0.88531359,-1993.2075,925.85108)" />
    <path
       transform="translate(-1866.1028,-160.16992)"
       sodipodi:type="star"
       style="color:#000000;clip-rule:nonzero;display:inline;overflow:visible;visibility:visible;opacity:0.95999995;isolation:auto;mix-blend-mode:normal;color-interpolation:sRGB;color-interpolation-filters:linearRGB;solid-color:#000000;solid-opacity:1;fill:#aa0000;fill-opacity:1;fill-rule:nonzero;stroke:none;stroke-width:2.5;stroke-linecap:butt;stroke-linejoin:miter;stroke-miterlimit:21;stroke-dasharray:none;stroke-dashoffset:0;stroke-opacity:1;color-rendering:auto;image-rendering:auto;shape-rendering:auto;text-rendering:auto;enable-background:accumulate"
       id="path6351-6-21"
       sodipodi:sides="5"
       sodipodi:cx="2450.5974"
       sodipodi:cy="503.94534"
       sodipodi:r1="43.834362"
       sodipodi:r2="18.625002"
       sodipodi:arg1="1.1071487"
       sodipodi:arg2="1.7354672"
       inkscape:flatsided="false"
       inkscape:rounded="0"
       inkscape:randomized="0"
       d="m 2470.2007,543.15199 -22.6564,-20.8336 -28.1769,12.38634 12.8127,-27.98552 -20.4872,-22.97016 30.5752,3.53759 15.515,-26.58268 6.0838,30.17187 30.076,6.54116 -26.8152,15.10966 z"
       inkscape:transform-center-x="-2.2205397"
       inkscape:transform-center-y="-2.0173673" />
    <path
       sodipodi:type="star"
       style="color:#000000;clip-rule:nonzero;display:inline;overflow:visible;visibility:visible;opacity:0.95999995;isolation:auto;mix-blend-mode:normal;color-interpolation:sRGB;color-interpolation-filters:linearRGB;solid-color:#000000;solid-opacity:1;fill:#aa0000;fill-opacity:1;fill-rule:nonzero;stroke:none;stroke-width:2.5;stroke-linecap:butt;stroke-linejoin:miter;stroke-miterlimit:21;stroke-dasharray:none;stroke-dashoffset:0;stroke-opacity:1;color-rendering:auto;image-rendering:auto;shape-rendering:auto;text-rendering:auto;enable-background:accumulate"
       id="path6351-6-1"
       sodipodi:sides="5"
       sodipodi:cx="3169.4204"
       sodipodi:cy="1291.3069"
       sodipodi:r1="43.834362"
       sodipodi:r2="18.625002"
       sodipodi:arg1="1.1071487"
       sodipodi:arg2="1.7354672"
       inkscape:flatsided="false"
       inkscape:rounded="0"
       inkscape:randomized="0"
       d="m 3189.0237,1330.5135 -22.6564,-20.8336 -28.1769,12.3864 12.8127,-27.9856 -20.4872,-22.9701 30.5752,3.5376 15.515,-26.5827 6.0838,30.1719 30.076,6.5411 -26.8152,15.1097 z"
       inkscape:transform-center-x="2.6391414"
       inkscape:transform-center-y="-1.5956035"
       transform="matrix(0.93562778,-0.35298818,0.35298818,0.93562778,-2117.8962,1041.7223)" />
    <path
       sodipodi:type="star"
       style="color:#000000;clip-rule:nonzero;display:inline;overflow:visible;visibility:visible;opacity:0.95999995;isolation:auto;mix-blend-mode:normal;color-interpolation:sRGB;color-interpolation-filters:linearRGB;solid-color:#000000;solid-opacity:1;fill:#aa0000;fill-opacity:1;fill-rule:nonzero;stroke:none;stroke-width:2.5;stroke-linecap:butt;stroke-linejoin:miter;stroke-miterlimit:21;stroke-dasharray:none;stroke-dashoffset:0;stroke-opacity:1;color-rendering:auto;image-rendering:auto;shape-rendering:auto;text-rendering:auto;enable-background:accumulate"
       id="path6351-6-6-6"
       sodipodi:sides="5"
       sodipodi:cx="3089.0459"
       sodipodi:cy="784.01544"
       sodipodi:r1="58.939377"
       sodipodi:r2="25.043049"
       sodipodi:arg1="1.1071487"
       sodipodi:arg2="1.7354672"
       inkscape:flatsided="false"
       inkscape:rounded="0"
       inkscape:randomized="0"
       d="m 3115.4044,836.73242 -30.4638,-28.0127 -37.8863,16.65458 17.2278,-37.62914 -27.5469,-30.88552 41.1111,4.75662 20.8614,-35.74288 8.1802,40.56889 40.44,8.7952 -36.0554,20.31634 z"
       inkscape:transform-center-x="0.45931924"
       inkscape:transform-center-y="-2.1572645"
       transform="matrix(0.45054697,-0.10043595,0.10043595,0.45054697,-629.9158,333.66479)" />
    <path
       sodipodi:type="star"
       style="color:#000000;clip-rule:nonzero;display:inline;overflow:visible;visibility:visible;opacity:0.95999995;isolation:auto;mix-blend-mode:normal;color-interpolation:sRGB;color-interpolation-filters:linearRGB;solid-color:#000000;solid-opacity:1;fill:#aa0000;fill-opacity:1;fill-rule:nonzero;stroke:none;stroke-width:2.5;stroke-linecap:butt;stroke-linejoin:miter;stroke-miterlimit:21;stroke-dasharray:none;stroke-dashoffset:0;stroke-opacity:1;color-rendering:auto;image-rendering:auto;shape-rendering:auto;text-rendering:auto;enable-background:accumulate"
       id="path6351-6-6-6-6"
       sodipodi:sides="5"
       sodipodi:cx="3089.0459"
       sodipodi:cy="784.01544"
       sodipodi:r1="58.939377"
       sodipodi:r2="25.043049"
       sodipodi:arg1="1.1071487"
       sodipodi:arg2="1.7354672"
       inkscape:flatsided="false"
       inkscape:rounded="0"
       inkscape:randomized="0"
       d="m 3115.4044,836.73242 -30.4638,-28.0127 -37.8863,16.65458 17.2278,-37.62914 -27.5469,-30.88552 41.1111,4.75662 20.8614,-35.74288 8.1802,40.56889 40.44,8.7952 -36.0554,20.31634 z"
       inkscape:transform-center-x="0.45931924"
       inkscape:transform-center-y="-2.1572645"
       transform="matrix(0.45054697,-0.10043595,0.10043595,0.45054697,-75.219,565.96227)" />
    <path
       sodipodi:type="star"
       style="color:#000000;clip-rule:nonzero;display:inline;overflow:visible;visibility:visible;opacity:0.95999995;isolation:auto;mix-blend-mode:normal;color-interpolation:sRGB;color-interpolation-filters:linearRGB;solid-color:#000000;solid-opacity:1;fill:#aa0000;fill-opacity:1;fill-rule:nonzero;stroke:none;stroke-width:2.5;stroke-linecap:butt;stroke-linejoin:miter;stroke-miterlimit:21;stroke-dasharray:none;stroke-dashoffset:0;stroke-opacity:1;color-rendering:auto;image-rendering:auto;shape-rendering:auto;text-rendering:auto;enable-background:accumulate"
       id="path6351-6-9-4"
       sodipodi:sides="5"
       sodipodi:cx="2853.0869"
       sodipodi:cy="1072.1656"
       sodipodi:r1="43.834362"
       sodipodi:r2="18.625002"
       sodipodi:arg1="1.1071487"
       sodipodi:arg2="1.7354672"
       inkscape:flatsided="false"
       inkscape:rounded="0"
       inkscape:randomized="0"
       d="m 2872.6902,1111.3723 -22.6564,-20.8336 -28.1769,12.3863 12.8127,-27.9855 -20.4872,-22.9701 30.5752,3.5375 15.515,-26.5826 6.0838,30.1718 30.076,6.5412 -26.8152,15.1097 z"
       inkscape:transform-center-x="0.54554"
       inkscape:transform-center-y="1.5131415"
       transform="matrix(0.36934399,-0.31760049,0.31760049,0.36934399,-397.6216,1425.0186)" />
    <path
       transform="translate(-1866.1028,-160.16992)"
       sodipodi:type="star"
       style="color:#000000;clip-rule:nonzero;display:inline;overflow:visible;visibility:visible;opacity:0.95999995;isolation:auto;mix-blend-mode:normal;color-interpolation:sRGB;color-interpolation-filters:linearRGB;solid-color:#000000;solid-opacity:1;fill:#aa0000;fill-opacity:1;fill-rule:nonzero;stroke:none;stroke-width:2.5;stroke-linecap:butt;stroke-linejoin:miter;stroke-miterlimit:21;stroke-dasharray:none;stroke-dashoffset:0;stroke-opacity:1;color-rendering:auto;image-rendering:auto;shape-rendering:auto;text-rendering:auto;enable-background:accumulate"
       id="path6351-6-9-1"
       sodipodi:sides="5"
       sodipodi:cx="3011.7793"
       sodipodi:cy="408.86691"
       sodipodi:r1="27.179691"
       sodipodi:r2="11.548515"
       sodipodi:arg1="1.1071487"
       sodipodi:arg2="1.7354672"
       inkscape:flatsided="false"
       inkscape:rounded="0"
       inkscape:randomized="0"
       d="m 3023.9344,433.17717 -14.0482,-12.91797 -17.4712,7.68021 7.9446,-17.35255 -12.7032,-14.24275 18.9582,2.1935 9.6202,-16.48271 3.7723,18.7082 18.6488,4.05588 -16.6269,9.36881 z"
       inkscape:transform-center-x="-1.376713"
       inkscape:transform-center-y="-1.2508755" />
  </g>
</svg>
